<svg xmlns="http://www.w3.org/2000/svg" xmlns:xlink="http://www.w3.org/1999/xlink" width="400" zoomAndPan="magnify" viewBox="0 0 300 299.999988" height="400" preserveAspectRatio="xMidYMid meet" version="1.0"><defs><g/><clipPath id="6bcd30ccb5"><path d="M 15.148438 15.148438 L 284.851562 15.148438 L 284.851562 284.851562 L 15.148438 284.851562 Z M 15.148438 15.148438 " clip-rule="nonzero"/></clipPath><clipPath id="1628291e7e"><path d="M 150 15.148438 C 75.523438 15.148438 15.148438 75.523438 15.148438 150 C 15.148438 224.476562 75.523438 284.851562 150 284.851562 C 224.476562 284.851562 284.851562 224.476562 284.851562 150 C 284.851562 75.523438 224.476562 15.148438 150 15.148438 Z M 150 15.148438 " clip-rule="nonzero"/></clipPath><clipPath id="b0ee0050dd"><path d="M 14.886719 14.886719 L 284.886719 14.886719 L 284.886719 284.886719 L 14.886719 284.886719 Z M 14.886719 14.886719 " clip-rule="nonzero"/></clipPath><clipPath id="5c2e75ccce"><path d="M 149.996094 14.886719 C 75.378906 14.886719 14.886719 75.378906 14.886719 149.996094 C 14.886719 224.617188 75.378906 285.109375 149.996094 285.109375 C 224.617188 285.109375 285.109375 224.617188 285.109375 149.996094 C 285.109375 75.378906 224.617188 14.886719 149.996094 14.886719 Z M 149.996094 14.886719 " clip-rule="nonzero"/></clipPath></defs><g clip-path="url(#6bcd30ccb5)"><g clip-path="url(#1628291e7e)"><path fill="#606c38" d="M 15.148438 15.148438 L 284.851562 15.148438 L 284.851562 284.851562 L 15.148438 284.851562 Z M 15.148438 15.148438 " fill-opacity="1" fill-rule="nonzero"/></g></g><g fill="#eece9f" fill-opacity="1"><g transform="translate(44.728488, 213.07971)"><g><path d="M 55.5625 -122.640625 L 97.53125 -14.453125 C 99.25 -10.085938 101.195312 -7.1875 103.375 -5.75 C 105.550781 -4.320312 107.554688 -3.550781 109.390625 -3.4375 L 109.390625 0 C 107.097656 -0.226562 104.285156 -0.367188 100.953125 -0.421875 C 97.628906 -0.484375 94.304688 -0.515625 90.984375 -0.515625 C 86.515625 -0.515625 82.328125 -0.484375 78.421875 -0.421875 C 74.523438 -0.367188 71.375 -0.226562 68.96875 0 L 68.96875 -3.4375 C 74.820312 -3.664062 78.550781 -4.664062 80.15625 -6.4375 C 81.757812 -8.21875 81.414062 -12.035156 79.125 -17.890625 L 47.125 -103.375 L 49.875 -105.609375 L 19.953125 -27.859375 C 18.117188 -23.273438 17.03125 -19.40625 16.6875 -16.25 C 16.34375 -13.101562 16.65625 -10.609375 17.625 -8.765625 C 18.601562 -6.929688 20.265625 -5.613281 22.609375 -4.8125 C 24.960938 -4.007812 27.914062 -3.550781 31.46875 -3.4375 L 31.46875 0 C 28.257812 -0.226562 24.90625 -0.367188 21.40625 -0.421875 C 17.914062 -0.484375 14.679688 -0.515625 11.703125 -0.515625 C 8.828125 -0.515625 6.382812 -0.484375 4.375 -0.421875 C 2.375 -0.367188 0.515625 -0.226562 -1.203125 0 L -1.203125 -3.4375 C 1.085938 -4.007812 3.4375 -5.351562 5.84375 -7.46875 C 8.25 -9.59375 10.429688 -13.238281 12.390625 -18.40625 L 52.796875 -122.640625 C 53.253906 -122.640625 53.710938 -122.640625 54.171875 -122.640625 C 54.640625 -122.640625 55.101562 -122.640625 55.5625 -122.640625 Z M 76.546875 -49.53125 L 76.546875 -46.09375 L 25.28125 -46.09375 L 27 -49.53125 Z M 76.546875 -49.53125 "/></g></g></g><g fill="#eece9f" fill-opacity="1"><g transform="translate(153.086039, 213.07971)"><g><path d="M 94.59375 -121.78125 L 94.59375 -118.34375 L 25.96875 -3.953125 L 59.6875 -3.953125 C 65.070312 -3.953125 69.457031 -4.523438 72.84375 -5.671875 C 76.226562 -6.816406 78.921875 -8.625 80.921875 -11.09375 C 82.929688 -13.5625 84.453125 -16.859375 85.484375 -20.984375 C 86.515625 -25.109375 87.316406 -30.15625 87.890625 -36.125 L 91.84375 -36.125 C 91.5 -32.5625 91.328125 -27.859375 91.328125 -22.015625 C 91.328125 -19.835938 91.410156 -16.710938 91.578125 -12.640625 C 91.753906 -8.566406 92.070312 -4.351562 92.53125 0 C 88.289062 -0.226562 83.644531 -0.367188 78.59375 -0.421875 C 73.550781 -0.484375 68.535156 -0.515625 63.546875 -0.515625 C 58.566406 -0.515625 53.953125 -0.515625 49.703125 -0.515625 C 42.941406 -0.515625 35.804688 -0.484375 28.296875 -0.421875 C 20.785156 -0.367188 13.757812 -0.226562 7.21875 0 L 7.21875 -3.4375 L 76.375 -117.8125 L 42.828125 -117.8125 C 37.441406 -117.8125 33.054688 -117.238281 29.671875 -116.09375 C 26.285156 -114.945312 23.585938 -113.140625 21.578125 -110.671875 C 19.578125 -108.210938 18.0625 -104.914062 17.03125 -100.78125 C 16 -96.65625 15.195312 -91.613281 14.625 -85.65625 L 10.65625 -85.65625 C 10.894531 -87.488281 11.039062 -89.609375 11.09375 -92.015625 C 11.15625 -94.421875 11.1875 -97.003906 11.1875 -99.765625 C 11.1875 -101.941406 11.097656 -105.0625 10.921875 -109.125 C 10.742188 -113.195312 10.425781 -117.414062 9.96875 -121.78125 C 14.21875 -121.664062 18.863281 -121.550781 23.90625 -121.4375 C 28.945312 -121.320312 33.988281 -121.265625 39.03125 -121.265625 C 44.082031 -121.265625 48.671875 -121.265625 52.796875 -121.265625 C 59.335938 -121.265625 66.363281 -121.289062 73.875 -121.34375 C 81.382812 -121.40625 88.289062 -121.550781 94.59375 -121.78125 Z M 94.59375 -121.78125 "/></g></g></g><g clip-path="url(#b0ee0050dd)"><g clip-path="url(#5c2e75ccce)"><path stroke-linecap="butt" transform="matrix(0.75, 0, 0, 0.75, 14.886711, 14.886705)" fill="none" stroke-linejoin="miter" d="M 180.145858 0.0000181943 C 80.656267 0.0000181943 0.0000101943 80.656275 0.0000101943 180.145866 C 0.0000101943 279.640666 80.656267 360.296923 180.145858 360.296923 C 279.640658 360.296923 360.296915 279.640666 360.296915 180.145866 C 360.296915 80.656275 279.640658 0.0000181943 180.145858 0.0000181943 Z M 180.145858 0.0000181943 " stroke="#673a14" stroke-width="12" stroke-opacity="1" stroke-miterlimit="4"/></g></g></svg>