<svg xmlns="http://www.w3.org/2000/svg" xmlns:xlink="http://www.w3.org/1999/xlink" width="300" zoomAndPan="magnify" viewBox="0 0 224.87999 112.499997" height="150" preserveAspectRatio="xMidYMid meet" version="1.0"><defs><clipPath id="2bfe18b858"><path d="M 0.4375 0 L 224.324219 0 L 224.324219 112.003906 L 0.4375 112.003906 Z M 0.4375 0 " clip-rule="nonzero"/></clipPath><clipPath id="9747914fa7"><path d="M 98 79 L 110 79 L 110 101.980469 L 98 101.980469 Z M 98 79 " clip-rule="nonzero"/></clipPath><clipPath id="a9d7f05d33"><path d="M 115 79 L 127 79 L 127 101.980469 L 115 101.980469 Z M 115 79 " clip-rule="nonzero"/></clipPath></defs><g clip-path="url(#2bfe18b858)"><path fill="#ffffff" d="M 0.4375 0 L 224.441406 0 L 224.441406 112.003906 L 0.4375 112.003906 Z M 0.4375 0 " fill-opacity="1" fill-rule="nonzero"/><path fill="#00173a" d="M 0.4375 0 L 224.441406 0 L 224.441406 112.003906 L 0.4375 112.003906 Z M 0.4375 0 " fill-opacity="1" fill-rule="nonzero"/></g><path fill="#d9bd80" d="M 45.644531 54.847656 C 44.527344 55.183594 43.355469 55.460938 42.125 55.683594 C 40.898438 55.929688 39.613281 56.054688 38.273438 56.054688 C 36.328125 56.054688 34.632812 55.761719 33.179688 55.183594 C 31.75 54.578125 30.554688 53.761719 29.59375 52.730469 C 28.65625 51.703125 27.953125 50.507812 27.484375 49.140625 C 27.015625 47.777344 26.78125 46.335938 26.78125 44.8125 C 26.78125 43.203125 27.027344 41.703125 27.519531 40.316406 C 28.03125 38.929688 28.78125 37.722656 29.761719 36.695312 C 30.746094 35.664062 31.964844 34.859375 33.414062 34.277344 C 34.867188 33.675781 36.554688 33.371094 38.472656 33.371094 C 38.898438 33.371094 39.390625 33.394531 39.949219 33.441406 C 40.53125 33.484375 41.132812 33.5625 41.757812 33.675781 C 42.382812 33.785156 43.019531 33.941406 43.667969 34.144531 C 44.335938 34.324219 44.972656 34.558594 45.578125 34.847656 L 45.644531 35.152344 L 45.074219 38.808594 L 43.566406 38.808594 L 43.433594 38.707031 C 43.320312 37.945312 42.863281 37.332031 42.058594 36.863281 C 41.277344 36.371094 40.027344 36.125 38.308594 36.125 C 37.234375 36.125 36.285156 36.226562 35.457031 36.425781 C 34.65625 36.605469 33.90625 36.960938 33.214844 37.5 C 32.722656 37.878906 32.320312 38.339844 32.007812 38.875 C 31.695312 39.390625 31.449219 39.960938 31.269531 40.585938 C 31.09375 41.210938 30.96875 41.871094 30.902344 42.566406 C 30.835938 43.257812 30.800781 43.953125 30.800781 44.644531 C 30.800781 46.011719 30.980469 47.230469 31.335938 48.304688 C 31.71875 49.378906 32.230469 50.28125 32.878906 51.019531 C 33.527344 51.757812 34.285156 52.328125 35.15625 52.730469 C 36.050781 53.113281 37.011719 53.304688 38.039062 53.304688 C 38.351562 53.304688 38.6875 53.292969 39.042969 53.269531 C 39.421875 53.222656 39.792969 53.167969 40.148438 53.101562 C 40.507812 53.035156 40.820312 52.957031 41.085938 52.867188 C 41.378906 52.777344 41.578125 52.6875 41.691406 52.597656 C 41.824219 52.53125 41.902344 52.441406 41.925781 52.328125 C 41.949219 52.21875 41.957031 52.074219 41.957031 51.894531 C 41.957031 51.738281 41.957031 51.480469 41.957031 51.121094 C 41.957031 50.765625 41.9375 50.484375 41.890625 50.28125 C 41.847656 49.703125 41.722656 49.265625 41.523438 48.972656 C 41.34375 48.660156 41.1875 48.460938 41.054688 48.371094 C 40.851562 48.191406 40.550781 48.089844 40.148438 48.070312 C 39.746094 48.046875 39.367188 48.035156 39.011719 48.035156 L 38.84375 47.902344 L 38.742188 46.492188 L 38.808594 46.359375 C 38.964844 46.359375 39.210938 46.367188 39.546875 46.390625 C 39.902344 46.414062 40.261719 46.4375 40.617188 46.457031 C 41 46.480469 41.355469 46.503906 41.691406 46.523438 C 42.046875 46.546875 42.304688 46.558594 42.460938 46.558594 L 44.808594 46.558594 C 44.964844 46.558594 45.175781 46.546875 45.445312 46.523438 C 45.710938 46.503906 45.992188 46.480469 46.28125 46.457031 C 46.570312 46.4375 46.851562 46.414062 47.117188 46.390625 C 47.386719 46.367188 47.597656 46.359375 47.753906 46.359375 L 47.824219 46.492188 L 47.753906 47.96875 L 47.585938 48.101562 C 46.941406 48.101562 46.480469 48.292969 46.214844 48.671875 C 45.96875 49.03125 45.824219 49.566406 45.777344 50.28125 C 45.734375 50.730469 45.699219 51.210938 45.679688 51.726562 C 45.679688 52.21875 45.679688 52.585938 45.679688 52.832031 C 45.679688 53.167969 45.679688 53.539062 45.679688 53.941406 C 45.699219 54.320312 45.734375 54.566406 45.777344 54.679688 Z M 61.128906 33.371094 C 62.847656 33.371094 64.378906 33.675781 65.71875 34.277344 C 67.058594 34.882812 68.1875 35.710938 69.101562 36.761719 C 70.019531 37.789062 70.710938 38.988281 71.179688 40.351562 C 71.671875 41.714844 71.917969 43.148438 71.917969 44.644531 C 71.917969 46.121094 71.683594 47.554688 71.214844 48.941406 C 70.746094 50.304688 70.042969 51.511719 69.101562 52.566406 C 68.1875 53.617188 67.035156 54.464844 65.652344 55.113281 C 64.289062 55.742188 62.703125 56.054688 60.894531 56.054688 C 59.152344 56.054688 57.621094 55.753906 56.304688 55.148438 C 54.984375 54.542969 53.878906 53.738281 52.988281 52.730469 C 52.117188 51.703125 51.457031 50.519531 51.011719 49.175781 C 50.5625 47.8125 50.339844 46.378906 50.339844 44.882812 C 50.339844 43.292969 50.585938 41.804688 51.078125 40.417969 C 51.570312 39.007812 52.273438 37.789062 53.1875 36.761719 C 54.105469 35.710938 55.230469 34.882812 56.570312 34.277344 C 57.914062 33.675781 59.429688 33.371094 61.128906 33.371094 Z M 61.09375 53.269531 C 62.191406 53.269531 63.160156 53.046875 64.011719 52.597656 C 64.882812 52.128906 65.609375 51.511719 66.1875 50.753906 C 66.769531 49.96875 67.214844 49.0625 67.527344 48.035156 C 67.839844 46.984375 67.996094 45.867188 67.996094 44.679688 C 67.996094 43.472656 67.828125 42.355469 67.496094 41.324219 C 67.183594 40.273438 66.714844 39.367188 66.085938 38.605469 C 65.484375 37.847656 64.746094 37.253906 63.875 36.828125 C 63.003906 36.382812 62.023438 36.15625 60.929688 36.15625 C 59.855469 36.15625 58.90625 36.371094 58.078125 36.796875 C 57.253906 37.21875 56.5625 37.8125 56.003906 38.574219 C 55.445312 39.332031 55.019531 40.238281 54.730469 41.292969 C 54.4375 42.320312 54.292969 43.4375 54.292969 44.644531 C 54.292969 45.988281 54.460938 47.195312 54.796875 48.269531 C 55.132812 49.320312 55.601562 50.214844 56.203125 50.953125 C 56.808594 51.691406 57.523438 52.261719 58.347656 52.664062 C 59.175781 53.066406 60.089844 53.269531 61.09375 53.269531 Z M 85.832031 33.371094 C 87.550781 33.371094 89.082031 33.675781 90.421875 34.277344 C 91.761719 34.882812 92.890625 35.710938 93.808594 36.761719 C 94.722656 37.789062 95.414062 38.988281 95.882812 40.351562 C 96.375 41.714844 96.621094 43.148438 96.621094 44.644531 C 96.621094 46.121094 96.386719 47.554688 95.917969 48.941406 C 95.449219 50.304688 94.746094 51.511719 93.808594 52.566406 C 92.890625 53.617188 91.742188 54.464844 90.355469 55.113281 C 88.992188 55.742188 87.40625 56.054688 85.597656 56.054688 C 83.855469 56.054688 82.324219 55.753906 81.007812 55.148438 C 79.691406 54.542969 78.585938 53.738281 77.691406 52.730469 C 76.820312 51.703125 76.160156 50.519531 75.714844 49.175781 C 75.265625 47.8125 75.042969 46.378906 75.042969 44.882812 C 75.042969 43.292969 75.289062 41.804688 75.78125 40.417969 C 76.273438 39.007812 76.976562 37.789062 77.890625 36.761719 C 78.808594 35.710938 79.9375 34.882812 81.277344 34.277344 C 82.617188 33.675781 84.136719 33.371094 85.832031 33.371094 Z M 85.800781 53.269531 C 86.894531 53.269531 87.867188 53.046875 88.714844 52.597656 C 89.585938 52.128906 90.3125 51.511719 90.890625 50.753906 C 91.472656 49.96875 91.917969 49.0625 92.230469 48.035156 C 92.546875 46.984375 92.703125 45.867188 92.703125 44.679688 C 92.703125 43.472656 92.535156 42.355469 92.199219 41.324219 C 91.886719 40.273438 91.417969 39.367188 90.792969 38.605469 C 90.1875 37.847656 89.453125 37.253906 88.582031 36.828125 C 87.707031 36.382812 86.726562 36.15625 85.632812 36.15625 C 84.558594 36.15625 83.609375 36.371094 82.785156 36.796875 C 81.957031 37.21875 81.265625 37.8125 80.707031 38.574219 C 80.148438 39.332031 79.722656 40.238281 79.433594 41.292969 C 79.144531 42.320312 78.996094 43.4375 78.996094 44.644531 C 78.996094 45.988281 79.164062 47.195312 79.5 48.269531 C 79.835938 49.320312 80.304688 50.214844 80.90625 50.953125 C 81.511719 51.691406 82.226562 52.261719 83.050781 52.664062 C 83.878906 53.066406 84.792969 53.269531 85.800781 53.269531 Z M 102.132812 37.332031 C 102.089844 36.773438 101.988281 36.347656 101.832031 36.058594 C 101.675781 35.765625 101.496094 35.554688 101.296875 35.417969 C 101.09375 35.242188 100.882812 35.140625 100.660156 35.117188 C 100.457031 35.09375 100.078125 35.085938 99.519531 35.085938 L 99.351562 34.949219 L 99.25 33.675781 L 99.320312 33.539062 C 99.476562 33.539062 99.699219 33.550781 99.988281 33.574219 C 100.277344 33.597656 100.589844 33.617188 100.925781 33.640625 C 101.261719 33.664062 101.585938 33.6875 101.898438 33.707031 C 102.234375 33.730469 102.523438 33.742188 102.769531 33.742188 L 106.019531 33.742188 C 106.289062 33.742188 106.621094 33.742188 107.023438 33.742188 C 107.449219 33.71875 107.875 33.695312 108.296875 33.675781 C 108.722656 33.652344 109.125 33.640625 109.503906 33.640625 C 109.90625 33.617188 110.242188 33.609375 110.507812 33.609375 C 112.25 33.609375 113.804688 33.910156 115.167969 34.511719 C 116.550781 35.09375 117.710938 35.890625 118.652344 36.894531 C 119.589844 37.902344 120.304688 39.078125 120.796875 40.417969 C 121.308594 41.761719 121.566406 43.179688 121.566406 44.679688 C 121.566406 46.15625 121.320312 47.566406 120.828125 48.90625 C 120.359375 50.226562 119.65625 51.402344 118.71875 52.429688 C 117.78125 53.4375 116.605469 54.242188 115.199219 54.847656 C 113.792969 55.449219 112.160156 55.753906 110.308594 55.753906 C 110.128906 55.753906 109.851562 55.742188 109.46875 55.71875 C 109.113281 55.71875 108.722656 55.71875 108.296875 55.71875 C 107.894531 55.71875 107.492188 55.707031 107.089844 55.683594 C 106.710938 55.683594 106.410156 55.683594 106.1875 55.683594 L 103.070312 55.683594 C 102.914062 55.683594 102.65625 55.695312 102.300781 55.71875 C 101.941406 55.742188 101.574219 55.761719 101.195312 55.785156 C 100.816406 55.808594 100.445312 55.832031 100.089844 55.851562 C 99.730469 55.875 99.476562 55.886719 99.320312 55.886719 L 99.25 55.753906 L 99.351562 54.476562 L 99.519531 54.34375 C 99.789062 54.34375 100.101562 54.332031 100.457031 54.308594 C 100.816406 54.265625 101.09375 54.175781 101.296875 54.039062 C 101.472656 53.90625 101.640625 53.695312 101.796875 53.402344 C 101.953125 53.113281 102.066406 52.675781 102.132812 52.09375 C 102.132812 51.9375 102.132812 51.757812 102.132812 51.558594 C 102.15625 51.335938 102.167969 51.066406 102.167969 50.753906 C 102.1875 50.441406 102.199219 50.058594 102.199219 49.613281 C 102.199219 49.164062 102.199219 48.605469 102.199219 47.933594 L 102.199219 42.464844 C 102.199219 42.242188 102.199219 41.90625 102.199219 41.457031 C 102.199219 40.988281 102.199219 40.496094 102.199219 39.984375 C 102.199219 39.46875 102.1875 38.964844 102.167969 38.472656 C 102.167969 37.980469 102.15625 37.601562 102.132812 37.332031 Z M 109.203125 53.066406 C 110.542969 53.066406 111.726562 52.855469 112.753906 52.429688 C 113.78125 51.984375 114.640625 51.378906 115.332031 50.617188 C 116.046875 49.859375 116.585938 48.972656 116.941406 47.96875 C 117.320312 46.9375 117.511719 45.84375 117.511719 44.679688 C 117.511719 43.472656 117.320312 42.363281 116.941406 41.359375 C 116.5625 40.328125 116.003906 39.445312 115.265625 38.707031 C 114.550781 37.96875 113.667969 37.398438 112.621094 36.996094 C 111.570312 36.570312 110.375 36.359375 109.035156 36.359375 L 106.085938 36.359375 C 106.042969 37.007812 106.007812 37.554688 105.984375 38.003906 C 105.984375 38.429688 105.976562 38.863281 105.953125 39.3125 C 105.929688 39.757812 105.917969 40.25 105.917969 40.789062 C 105.917969 41.300781 105.917969 41.960938 105.917969 42.765625 L 105.917969 46.929688 C 105.917969 48.269531 105.917969 49.320312 105.917969 50.082031 C 105.941406 50.820312 105.976562 51.378906 106.019531 51.757812 C 106.085938 52.339844 106.230469 52.710938 106.453125 52.867188 C 106.679688 53 107.082031 53.066406 107.660156 53.066406 Z M 135.375 37.332031 C 135.332031 36.953125 135.242188 36.582031 135.109375 36.226562 C 134.996094 35.84375 134.816406 35.566406 134.570312 35.386719 C 134.394531 35.273438 134.167969 35.195312 133.902344 35.152344 C 133.632812 35.105469 133.265625 35.085938 132.796875 35.085938 L 132.628906 34.949219 L 132.527344 33.675781 L 132.59375 33.539062 C 132.796875 33.5625 133.0625 33.585938 133.398438 33.609375 C 133.757812 33.628906 134.113281 33.652344 134.472656 33.675781 C 134.851562 33.695312 135.207031 33.71875 135.542969 33.742188 C 135.878906 33.742188 136.144531 33.742188 136.347656 33.742188 L 138.324219 33.742188 C 138.523438 33.742188 138.78125 33.742188 139.09375 33.742188 C 139.429688 33.71875 139.777344 33.695312 140.132812 33.675781 C 140.511719 33.652344 140.871094 33.628906 141.207031 33.609375 C 141.5625 33.585938 141.851562 33.5625 142.078125 33.539062 L 142.144531 33.675781 L 142.042969 34.949219 L 141.910156 35.085938 C 141.351562 35.085938 140.9375 35.117188 140.667969 35.183594 C 140.421875 35.230469 140.222656 35.308594 140.066406 35.417969 C 139.597656 35.734375 139.328125 36.371094 139.261719 37.332031 C 139.238281 37.554688 139.21875 37.789062 139.195312 38.035156 C 139.195312 38.261719 139.195312 38.5625 139.195312 38.941406 C 139.195312 39.300781 139.195312 39.757812 139.195312 40.316406 C 139.195312 40.878906 139.195312 41.582031 139.195312 42.433594 L 139.195312 46.929688 C 139.195312 47.800781 139.195312 48.515625 139.195312 49.074219 C 139.195312 49.613281 139.195312 50.070312 139.195312 50.449219 C 139.21875 50.808594 139.230469 51.132812 139.230469 51.425781 C 139.25 51.691406 139.285156 52.015625 139.328125 52.398438 C 139.351562 52.84375 139.609375 53.066406 140.101562 53.066406 L 143.214844 53.066406 C 143.953125 53.066406 144.535156 53.058594 144.957031 53.035156 C 145.40625 52.988281 145.75 52.898438 145.996094 52.765625 C 146.242188 52.609375 146.433594 52.398438 146.566406 52.128906 C 146.699219 51.859375 146.824219 51.492188 146.933594 51.019531 L 147.035156 50.886719 L 148.578125 50.886719 L 147.972656 55.484375 L 147.707031 55.820312 C 147.527344 55.796875 147.246094 55.773438 146.867188 55.753906 C 146.488281 55.753906 146.085938 55.742188 145.660156 55.71875 C 145.238281 55.71875 144.8125 55.707031 144.386719 55.683594 C 143.988281 55.683594 143.675781 55.683594 143.449219 55.683594 L 136.347656 55.683594 C 136.191406 55.683594 135.933594 55.683594 135.578125 55.683594 C 135.242188 55.707031 134.882812 55.730469 134.503906 55.753906 C 134.125 55.773438 133.757812 55.796875 133.398438 55.820312 C 133.042969 55.839844 132.773438 55.863281 132.59375 55.886719 L 132.527344 55.753906 L 132.628906 54.476562 L 132.796875 54.34375 C 133.644531 54.34375 134.226562 54.21875 134.539062 53.972656 C 134.714844 53.816406 134.882812 53.570312 135.039062 53.234375 C 135.21875 52.898438 135.332031 52.507812 135.375 52.0625 C 135.398438 51.835938 135.410156 51.535156 135.410156 51.15625 C 135.429688 50.753906 135.441406 50.339844 135.441406 49.914062 C 135.464844 49.488281 135.476562 49.097656 135.476562 48.738281 C 135.476562 48.359375 135.476562 48.089844 135.476562 47.933594 L 135.476562 42.464844 C 135.476562 41.234375 135.464844 40.160156 135.441406 39.246094 C 135.441406 38.304688 135.421875 37.667969 135.375 37.332031 Z M 159.878906 33.675781 L 159.777344 34.949219 L 159.644531 35.085938 C 159.285156 35.085938 158.949219 35.105469 158.636719 35.152344 C 158.324219 35.171875 158.058594 35.261719 157.835938 35.417969 C 157.632812 35.574219 157.441406 35.777344 157.265625 36.023438 C 157.109375 36.269531 157.03125 36.707031 157.03125 37.332031 C 157.007812 37.644531 156.984375 37.9375 156.964844 38.203125 C 156.964844 38.472656 156.953125 38.785156 156.929688 39.144531 C 156.929688 39.5 156.929688 39.9375 156.929688 40.453125 C 156.929688 40.964844 156.929688 41.625 156.929688 42.433594 L 156.929688 47.261719 C 156.929688 48.070312 156.929688 48.726562 156.929688 49.242188 C 156.929688 49.734375 156.929688 50.148438 156.929688 50.484375 C 156.953125 50.820312 156.964844 51.109375 156.964844 51.355469 C 156.984375 51.582031 157.007812 51.828125 157.03125 52.09375 C 157.074219 52.722656 157.175781 53.15625 157.332031 53.402344 C 157.488281 53.648438 157.65625 53.851562 157.835938 54.007812 C 158.035156 54.164062 158.292969 54.265625 158.605469 54.308594 C 158.941406 54.332031 159.285156 54.34375 159.644531 54.34375 L 159.777344 54.476562 L 159.878906 55.753906 L 159.8125 55.886719 C 159.65625 55.886719 159.398438 55.875 159.039062 55.851562 C 158.683594 55.832031 158.316406 55.808594 157.933594 55.785156 C 157.554688 55.761719 157.1875 55.742188 156.828125 55.71875 C 156.472656 55.695312 156.214844 55.683594 156.058594 55.683594 L 154.082031 55.683594 C 153.925781 55.683594 153.667969 55.695312 153.3125 55.71875 C 152.953125 55.742188 152.585938 55.761719 152.207031 55.785156 C 151.824219 55.808594 151.457031 55.832031 151.101562 55.851562 C 150.742188 55.875 150.484375 55.886719 150.328125 55.886719 L 150.261719 55.753906 L 150.363281 54.476562 L 150.53125 54.34375 C 150.886719 54.34375 151.222656 54.332031 151.535156 54.308594 C 151.871094 54.265625 152.128906 54.164062 152.304688 54.007812 C 152.484375 53.851562 152.640625 53.648438 152.773438 53.402344 C 152.929688 53.15625 153.054688 52.722656 153.144531 52.09375 C 153.144531 51.9375 153.144531 51.757812 153.144531 51.558594 C 153.164062 51.335938 153.175781 51.066406 153.175781 50.753906 C 153.199219 50.441406 153.210938 50.058594 153.210938 49.613281 C 153.210938 49.164062 153.210938 48.605469 153.210938 47.933594 L 153.210938 42.464844 C 153.210938 41.683594 153.210938 41.023438 153.210938 40.484375 C 153.210938 39.949219 153.199219 39.492188 153.175781 39.109375 C 153.175781 38.730469 153.164062 38.40625 153.144531 38.136719 C 153.144531 37.867188 153.132812 37.601562 153.109375 37.332031 C 153.066406 36.75 152.964844 36.324219 152.808594 36.058594 C 152.652344 35.789062 152.484375 35.574219 152.304688 35.417969 C 152.105469 35.261719 151.847656 35.171875 151.535156 35.152344 C 151.222656 35.105469 150.886719 35.085938 150.53125 35.085938 L 150.363281 34.949219 L 150.261719 33.675781 L 150.328125 33.539062 C 150.484375 33.539062 150.742188 33.550781 151.101562 33.574219 C 151.457031 33.597656 151.824219 33.617188 152.207031 33.640625 C 152.585938 33.664062 152.953125 33.6875 153.3125 33.707031 C 153.667969 33.730469 153.925781 33.742188 154.082031 33.742188 L 156.058594 33.742188 C 156.214844 33.742188 156.472656 33.730469 156.828125 33.707031 C 157.1875 33.6875 157.554688 33.664062 157.933594 33.640625 C 158.316406 33.617188 158.683594 33.597656 159.039062 33.574219 C 159.398438 33.550781 159.65625 33.539062 159.8125 33.539062 Z M 166.652344 38.808594 C 166.652344 39.390625 166.808594 39.882812 167.121094 40.285156 C 167.433594 40.6875 167.859375 41.046875 168.394531 41.359375 C 168.929688 41.648438 169.554688 41.929688 170.269531 42.195312 C 170.984375 42.464844 171.746094 42.746094 172.550781 43.035156 C 173.351562 43.347656 174.125 43.683594 174.859375 44.042969 C 175.597656 44.378906 176.246094 44.804688 176.804688 45.316406 C 177.386719 45.808594 177.84375 46.402344 178.179688 47.097656 C 178.535156 47.765625 178.714844 48.582031 178.714844 49.542969 C 178.714844 50.527344 178.523438 51.425781 178.144531 52.230469 C 177.765625 53.011719 177.21875 53.695312 176.503906 54.277344 C 175.8125 54.835938 174.949219 55.269531 173.921875 55.585938 C 172.917969 55.898438 171.789062 56.054688 170.539062 56.054688 C 169.199219 56.054688 167.859375 55.886719 166.519531 55.550781 C 165.179688 55.214844 163.984375 54.757812 162.933594 54.175781 L 162.800781 53.738281 L 163.570312 49.242188 L 165.078125 49.242188 L 165.246094 49.445312 C 165.378906 50.988281 165.894531 52.082031 166.785156 52.730469 C 167.703125 53.382812 168.941406 53.707031 170.503906 53.707031 C 172.046875 53.707031 173.164062 53.4375 173.855469 52.898438 C 174.546875 52.339844 174.894531 51.523438 174.894531 50.449219 C 174.894531 49.757812 174.75 49.1875 174.460938 48.738281 C 174.167969 48.292969 173.753906 47.914062 173.21875 47.597656 C 172.707031 47.285156 172.082031 47.007812 171.34375 46.761719 C 170.605469 46.515625 169.789062 46.222656 168.898438 45.886719 C 168.09375 45.597656 167.34375 45.285156 166.652344 44.949219 C 165.960938 44.589844 165.355469 44.175781 164.84375 43.707031 C 164.351562 43.214844 163.960938 42.632812 163.671875 41.960938 C 163.378906 41.292969 163.234375 40.484375 163.234375 39.546875 C 163.234375 37.578125 163.871094 36.058594 165.144531 34.984375 C 166.441406 33.910156 168.40625 33.371094 171.042969 33.371094 C 172.246094 33.371094 173.375 33.519531 174.425781 33.808594 C 175.476562 34.078125 176.359375 34.402344 177.074219 34.78125 L 177.207031 35.152344 L 176.671875 38.976562 L 175.0625 38.976562 L 174.894531 38.808594 C 174.761719 37.867188 174.359375 37.140625 173.6875 36.628906 C 173.019531 36.113281 172.082031 35.855469 170.875 35.855469 C 169.535156 35.855469 168.496094 36.125 167.757812 36.660156 C 167.019531 37.199219 166.652344 37.914062 166.652344 38.808594 Z M 195.050781 55.886719 C 194.894531 55.886719 194.648438 55.875 194.3125 55.851562 C 193.976562 55.832031 193.621094 55.808594 193.242188 55.785156 C 192.863281 55.761719 192.503906 55.742188 192.167969 55.71875 C 191.835938 55.695312 191.589844 55.683594 191.433594 55.683594 L 188.183594 55.683594 C 188.027344 55.683594 187.78125 55.695312 187.445312 55.71875 C 187.109375 55.742188 186.753906 55.761719 186.371094 55.785156 C 186.015625 55.808594 185.667969 55.832031 185.335938 55.851562 C 185 55.875 184.753906 55.886719 184.597656 55.886719 L 184.53125 55.753906 L 184.628906 54.476562 L 184.796875 54.34375 C 185.132812 54.34375 185.523438 54.332031 185.96875 54.308594 C 186.441406 54.285156 186.773438 54.1875 186.976562 54.007812 C 187.15625 53.851562 187.332031 53.648438 187.511719 53.402344 C 187.691406 53.15625 187.8125 52.722656 187.878906 52.09375 C 187.902344 51.9375 187.914062 51.757812 187.914062 51.558594 C 187.9375 51.335938 187.949219 51.066406 187.949219 50.753906 C 187.96875 50.441406 187.980469 50.058594 187.980469 49.613281 C 187.980469 49.164062 187.980469 48.605469 187.980469 47.933594 L 187.980469 41.792969 C 187.980469 40.5625 187.96875 39.46875 187.949219 38.507812 C 187.925781 37.542969 187.902344 36.828125 187.878906 36.359375 L 187.511719 36.359375 C 186.664062 36.359375 185.960938 36.371094 185.402344 36.390625 C 184.84375 36.390625 184.394531 36.414062 184.0625 36.460938 C 183.726562 36.480469 183.46875 36.515625 183.289062 36.558594 C 183.132812 36.605469 183.023438 36.660156 182.957031 36.726562 C 182.710938 36.839844 182.507812 37.019531 182.351562 37.265625 C 182.195312 37.511719 182.09375 37.800781 182.050781 38.136719 L 181.917969 38.269531 L 180.476562 38.269531 L 180.710938 33.777344 L 180.84375 33.472656 L 181.046875 33.371094 C 181.222656 33.441406 181.613281 33.507812 182.21875 33.574219 C 182.820312 33.617188 183.480469 33.652344 184.195312 33.675781 C 184.910156 33.695312 185.589844 33.71875 186.238281 33.742188 C 186.910156 33.742188 187.390625 33.742188 187.679688 33.742188 L 191.902344 33.742188 C 192.191406 33.742188 192.660156 33.742188 193.308594 33.742188 C 193.976562 33.71875 194.671875 33.695312 195.386719 33.675781 C 196.101562 33.652344 196.757812 33.617188 197.363281 33.574219 C 197.964844 33.507812 198.355469 33.441406 198.535156 33.371094 L 198.734375 33.472656 L 198.871094 33.777344 L 199.136719 38.269531 L 197.664062 38.269531 L 197.53125 38.136719 C 197.484375 37.800781 197.386719 37.511719 197.226562 37.265625 C 197.070312 37.019531 196.871094 36.839844 196.625 36.726562 C 196.558594 36.636719 196.433594 36.570312 196.257812 36.527344 C 196.101562 36.460938 195.855469 36.414062 195.519531 36.390625 C 195.183594 36.371094 194.738281 36.359375 194.179688 36.359375 C 193.644531 36.359375 192.949219 36.359375 192.101562 36.359375 L 191.734375 36.359375 C 191.710938 36.894531 191.6875 37.613281 191.667969 38.507812 C 191.667969 39.402344 191.667969 40.484375 191.667969 41.761719 L 191.667969 47.261719 C 191.667969 48.070312 191.667969 48.726562 191.667969 49.242188 C 191.667969 49.734375 191.667969 50.148438 191.667969 50.484375 C 191.6875 50.820312 191.699219 51.109375 191.699219 51.355469 C 191.722656 51.582031 191.746094 51.828125 191.765625 52.09375 C 191.8125 52.742188 191.933594 53.191406 192.136719 53.4375 C 192.335938 53.683594 192.527344 53.875 192.707031 54.007812 C 192.792969 54.097656 192.917969 54.164062 193.074219 54.207031 C 193.253906 54.253906 193.441406 54.285156 193.644531 54.308594 C 193.84375 54.332031 194.046875 54.34375 194.246094 54.34375 C 194.46875 54.34375 194.671875 54.34375 194.847656 54.34375 L 195.015625 54.476562 L 195.117188 55.753906 Z M 195.050781 55.886719 " fill-opacity="1" fill-rule="nonzero"/><path fill="#d9bd80" d="M 103.816406 13.863281 L 100.804688 13.863281 L 100.804688 22.117188 L 99.550781 22.117188 L 99.550781 13.863281 L 96.535156 13.863281 L 96.535156 12.800781 L 103.816406 12.800781 Z M 116.632812 12.800781 L 116.632812 22.117188 L 115.371094 22.117188 L 115.371094 17.878906 L 110.351562 17.878906 L 110.351562 22.117188 L 109.09375 22.117188 L 109.09375 12.800781 L 110.351562 12.800781 L 110.351562 16.957031 L 115.371094 16.957031 L 115.371094 12.800781 Z M 128.644531 21.089844 L 128.636719 22.117188 L 122.90625 22.117188 L 122.90625 12.800781 L 128.636719 12.800781 L 128.636719 13.828125 L 124.164062 13.828125 L 124.164062 16.921875 L 127.789062 16.921875 L 127.789062 17.910156 L 124.164062 17.910156 L 124.164062 21.089844 Z M 128.644531 21.089844 " fill-opacity="1" fill-rule="nonzero"/><path fill="#d9bd80" d="M 115.261719 74.992188 C 115.261719 73.171875 115.726562 71.65625 115.96875 70.992188 C 115.742188 70.84375 115.347656 70.652344 114.789062 70.652344 C 113.992188 70.652344 112.976562 71.375 112.652344 71.652344 C 112.566406 71.730469 112.449219 71.777344 112.320312 71.777344 C 112.195312 71.777344 112.078125 71.730469 111.992188 71.652344 C 111.667969 71.375 110.652344 70.652344 109.855469 70.652344 C 109.296875 70.652344 108.902344 70.839844 108.671875 70.992188 C 108.917969 71.65625 109.382812 73.175781 109.382812 74.992188 C 109.382812 76.808594 108.917969 78.324219 108.671875 78.988281 C 108.902344 79.140625 109.296875 79.332031 109.855469 79.332031 C 110.542969 79.332031 111.390625 78.792969 111.820312 78.46875 L 111.820312 74.992188 C 111.820312 74.710938 112.042969 74.488281 112.320312 74.488281 C 112.601562 74.488281 112.824219 74.710938 112.824219 74.992188 L 112.824219 78.46875 C 113.253906 78.792969 114.101562 79.332031 114.789062 79.332031 C 115.347656 79.332031 115.742188 79.140625 115.96875 78.988281 C 115.726562 78.324219 115.261719 76.808594 115.261719 74.992188 Z M 115.261719 74.992188 " fill-opacity="1" fill-rule="nonzero"/><g clip-path="url(#9747914fa7)"><path fill="#d9bd80" d="M 103.542969 84.832031 L 98.273438 93.648438 L 103.804688 101.574219 L 109.222656 80.277344 C 108.773438 80.1875 108.417969 80.015625 108.164062 79.855469 C 107.457031 80.761719 105.675781 82.960938 103.542969 84.832031 Z M 103.542969 84.832031 " fill-opacity="1" fill-rule="nonzero"/></g><path fill="#d9bd80" d="M 81.605469 69.578125 L 81.605469 80.386719 L 91.542969 80.386719 C 91.214844 78.488281 91.121094 76.550781 91.121094 74.992188 C 91.121094 73.339844 91.4375 71.367188 92.097656 69.578125 Z M 81.605469 69.578125 " fill-opacity="1" fill-rule="nonzero"/><path fill="#d9bd80" d="M 107.632812 78.890625 C 107.6875 78.75 107.855469 78.320312 108.019531 77.695312 L 102.472656 79.246094 C 102.425781 79.257812 102.382812 79.265625 102.335938 79.265625 C 102.117188 79.265625 101.914062 79.117188 101.851562 78.894531 C 101.777344 78.628906 101.933594 78.351562 102.199219 78.273438 L 108.25 76.582031 C 108.300781 76.242188 108.34375 75.878906 108.363281 75.496094 L 101.738281 75.496094 C 100.265625 75.496094 98.8125 76.199219 97.644531 77.480469 C 97.546875 77.589844 97.410156 77.644531 97.273438 77.644531 C 97.152344 77.644531 97.03125 77.601562 96.933594 77.515625 C 96.730469 77.328125 96.714844 77.007812 96.902344 76.800781 C 98.261719 75.308594 99.980469 74.488281 101.738281 74.488281 L 108.363281 74.488281 C 108.34375 74.105469 108.300781 73.738281 108.25 73.398438 L 102.199219 71.707031 C 101.933594 71.632812 101.777344 71.355469 101.851562 71.085938 C 101.925781 70.816406 102.203125 70.660156 102.472656 70.734375 L 108.019531 72.289062 C 107.871094 71.722656 107.71875 71.3125 107.648438 71.136719 C 106.871094 70.4375 100.675781 65.011719 97.316406 65.460938 C 93.777344 65.933594 92.128906 71.425781 92.128906 74.992188 C 92.128906 78.375 92.621094 86.304688 97.195312 86.878906 C 100.582031 87.304688 105.839844 81.300781 107.632812 78.890625 Z M 107.632812 78.890625 " fill-opacity="1" fill-rule="nonzero"/><path fill="#d9bd80" d="M 132.546875 69.578125 C 133.207031 71.367188 133.523438 73.339844 133.523438 74.992188 C 133.523438 76.550781 133.429688 78.488281 133.097656 80.386719 L 143.039062 80.386719 L 143.039062 69.578125 Z M 132.546875 69.578125 " fill-opacity="1" fill-rule="nonzero"/><g clip-path="url(#a9d7f05d33)"><path fill="#d9bd80" d="M 116.480469 79.855469 C 116.226562 80.015625 115.871094 80.1875 115.421875 80.277344 L 120.839844 101.574219 L 126.371094 93.648438 L 121.101562 84.832031 C 118.96875 82.960938 117.1875 80.761719 116.480469 79.855469 Z M 116.480469 79.855469 " fill-opacity="1" fill-rule="nonzero"/></g><path fill="#d9bd80" d="M 127.328125 65.460938 C 123.964844 65.011719 117.773438 70.4375 116.992188 71.136719 C 116.925781 71.3125 116.773438 71.722656 116.625 72.289062 L 122.171875 70.734375 C 122.441406 70.660156 122.71875 70.816406 122.792969 71.085938 C 122.867188 71.355469 122.710938 71.632812 122.441406 71.707031 L 116.394531 73.398438 C 116.34375 73.738281 116.300781 74.105469 116.28125 74.488281 L 122.90625 74.488281 C 124.664062 74.488281 126.382812 75.308594 127.742188 76.800781 C 127.929688 77.007812 127.914062 77.328125 127.710938 77.515625 C 127.613281 77.601562 127.492188 77.644531 127.371094 77.644531 C 127.234375 77.644531 127.097656 77.589844 127 77.480469 C 125.832031 76.199219 124.378906 75.496094 122.90625 75.496094 L 116.28125 75.496094 C 116.300781 75.878906 116.339844 76.242188 116.394531 76.582031 L 122.445312 78.273438 C 122.710938 78.351562 122.867188 78.628906 122.792969 78.894531 C 122.730469 79.117188 122.527344 79.265625 122.308594 79.265625 C 122.261719 79.265625 122.21875 79.257812 122.171875 79.246094 L 116.625 77.695312 C 116.785156 78.320312 116.957031 78.75 117.011719 78.890625 C 118.804688 81.300781 124.0625 87.304688 127.449219 86.878906 C 132.023438 86.304688 132.515625 78.375 132.515625 74.992188 C 132.515625 71.429688 130.867188 65.933594 127.328125 65.460938 Z M 127.328125 65.460938 " fill-opacity="1" fill-rule="nonzero"/></svg>