<svg xmlns="http://www.w3.org/2000/svg" xmlns:xlink="http://www.w3.org/1999/xlink" width="300" zoomAndPan="magnify" viewBox="0 0 224.87999 149.999998" height="200" preserveAspectRatio="xMidYMid meet" version="1.0"><defs><clipPath id="f4932d3702"><path d="M 0 0.0390625 L 224.761719 0.0390625 L 224.761719 149.960938 L 0 149.960938 Z M 0 0.0390625 " clip-rule="nonzero"/></clipPath><clipPath id="188e1e07e8"><path d="M 97 99 L 109 99 L 109 122.527344 L 97 122.527344 Z M 97 99 " clip-rule="nonzero"/></clipPath><clipPath id="c976b2540c"><path d="M 115 99 L 127 99 L 127 122.527344 L 115 122.527344 Z M 115 99 " clip-rule="nonzero"/></clipPath></defs><g clip-path="url(#f4932d3702)"><path fill="#ffffff" d="M 0 0.0390625 L 224.878906 0.0390625 L 224.878906 149.960938 L 0 149.960938 Z M 0 0.0390625 " fill-opacity="1" fill-rule="nonzero"/><path fill="#00173a" d="M 0 0.0390625 L 224.878906 0.0390625 L 224.878906 149.960938 L 0 149.960938 Z M 0 0.0390625 " fill-opacity="1" fill-rule="nonzero"/></g><path fill="#d9bd80" d="M 42.976562 73.671875 C 41.816406 74.019531 40.597656 74.308594 39.324219 74.542969 C 38.046875 74.796875 36.714844 74.921875 35.324219 74.921875 C 33.304688 74.921875 31.542969 74.621094 30.035156 74.019531 C 28.550781 73.394531 27.3125 72.546875 26.3125 71.480469 C 25.339844 70.414062 24.609375 69.171875 24.121094 67.757812 C 23.636719 66.34375 23.390625 64.851562 23.390625 63.273438 C 23.390625 61.605469 23.648438 60.050781 24.15625 58.613281 C 24.691406 57.175781 25.46875 55.921875 26.488281 54.855469 C 27.507812 53.789062 28.773438 52.957031 30.28125 52.351562 C 31.789062 51.726562 33.539062 51.414062 35.53125 51.414062 C 35.972656 51.414062 36.484375 51.4375 37.0625 51.484375 C 37.664062 51.53125 38.292969 51.609375 38.941406 51.726562 C 39.589844 51.84375 40.25 52.003906 40.925781 52.214844 C 41.621094 52.398438 42.28125 52.640625 42.90625 52.945312 L 42.976562 53.257812 L 42.386719 57.046875 L 40.820312 57.046875 L 40.679688 56.941406 C 40.566406 56.15625 40.089844 55.515625 39.253906 55.03125 C 38.441406 54.519531 37.144531 54.265625 35.359375 54.265625 C 34.246094 54.265625 33.257812 54.371094 32.402344 54.578125 C 31.566406 54.765625 30.789062 55.132812 30.070312 55.691406 C 29.5625 56.085938 29.144531 56.5625 28.820312 57.117188 C 28.496094 57.648438 28.238281 58.242188 28.054688 58.890625 C 27.867188 59.539062 27.742188 60.222656 27.671875 60.941406 C 27.601562 61.660156 27.566406 62.378906 27.566406 63.097656 C 27.566406 64.511719 27.753906 65.777344 28.125 66.890625 C 28.515625 68.003906 29.050781 68.941406 29.722656 69.707031 C 30.394531 70.472656 31.183594 71.0625 32.089844 71.480469 C 33.015625 71.875 34.011719 72.070312 35.082031 72.070312 C 35.40625 72.070312 35.753906 72.058594 36.125 72.035156 C 36.519531 71.992188 36.902344 71.933594 37.273438 71.863281 C 37.644531 71.792969 37.96875 71.710938 38.246094 71.621094 C 38.546875 71.527344 38.753906 71.433594 38.871094 71.339844 C 39.011719 71.273438 39.09375 71.179688 39.113281 71.0625 C 39.136719 70.949219 39.148438 70.796875 39.148438 70.609375 C 39.148438 70.449219 39.148438 70.183594 39.148438 69.8125 C 39.148438 69.441406 39.125 69.152344 39.082031 68.941406 C 39.035156 68.339844 38.90625 67.886719 38.699219 67.585938 C 38.511719 67.261719 38.351562 67.050781 38.210938 66.960938 C 38.003906 66.773438 37.6875 66.667969 37.273438 66.644531 C 36.855469 66.625 36.460938 66.613281 36.089844 66.613281 L 35.914062 66.472656 L 35.8125 65.011719 L 35.878906 64.871094 C 36.042969 64.871094 36.296875 64.882812 36.644531 64.90625 C 37.015625 64.929688 37.386719 64.953125 37.757812 64.976562 C 38.152344 65 38.523438 65.023438 38.871094 65.046875 C 39.242188 65.070312 39.507812 65.082031 39.671875 65.082031 L 42.105469 65.082031 C 42.269531 65.082031 42.488281 65.070312 42.769531 65.046875 C 43.046875 65.023438 43.335938 65 43.636719 64.976562 C 43.9375 64.953125 44.230469 64.929688 44.507812 64.90625 C 44.785156 64.882812 45.003906 64.871094 45.167969 64.871094 L 45.238281 65.011719 L 45.167969 66.542969 L 44.992188 66.679688 C 44.320312 66.679688 43.847656 66.878906 43.566406 67.273438 C 43.3125 67.644531 43.160156 68.199219 43.117188 68.941406 C 43.070312 69.40625 43.035156 69.902344 43.011719 70.4375 C 43.011719 70.949219 43.011719 71.328125 43.011719 71.585938 C 43.011719 71.933594 43.011719 72.316406 43.011719 72.734375 C 43.035156 73.125 43.070312 73.382812 43.117188 73.496094 Z M 59.050781 51.414062 C 60.835938 51.414062 62.425781 51.726562 63.816406 52.351562 C 65.210938 52.976562 66.378906 53.835938 67.332031 54.925781 C 68.28125 55.992188 69 57.234375 69.488281 58.648438 C 69.996094 60.0625 70.253906 61.546875 70.253906 63.097656 C 70.253906 64.628906 70.007812 66.113281 69.523438 67.550781 C 69.035156 68.964844 68.304688 70.21875 67.332031 71.308594 C 66.378906 72.394531 65.1875 73.277344 63.75 73.949219 C 62.332031 74.597656 60.6875 74.921875 58.808594 74.921875 C 57 74.921875 55.410156 74.609375 54.042969 73.984375 C 52.675781 73.359375 51.527344 72.523438 50.597656 71.480469 C 49.695312 70.414062 49.011719 69.183594 48.546875 67.792969 C 48.082031 66.378906 47.851562 64.894531 47.851562 63.34375 C 47.851562 61.695312 48.105469 60.15625 48.617188 58.71875 C 49.125 57.257812 49.855469 55.992188 50.808594 54.925781 C 51.757812 53.835938 52.929688 52.976562 54.320312 52.351562 C 55.710938 51.726562 57.289062 51.414062 59.050781 51.414062 Z M 59.015625 72.035156 C 60.152344 72.035156 61.164062 71.804688 62.042969 71.339844 C 62.949219 70.855469 63.703125 70.21875 64.304688 69.429688 C 64.90625 68.617188 65.371094 67.679688 65.695312 66.613281 C 66.019531 65.523438 66.183594 64.363281 66.183594 63.132812 C 66.183594 61.882812 66.007812 60.722656 65.660156 59.65625 C 65.335938 58.566406 64.851562 57.628906 64.199219 56.839844 C 63.574219 56.050781 62.808594 55.4375 61.90625 54.996094 C 61 54.53125 59.980469 54.300781 58.84375 54.300781 C 57.730469 54.300781 56.746094 54.519531 55.886719 54.960938 C 55.027344 55.402344 54.308594 56.015625 53.730469 56.804688 C 53.152344 57.59375 52.710938 58.53125 52.410156 59.621094 C 52.105469 60.6875 51.957031 61.847656 51.957031 63.097656 C 51.957031 64.488281 52.128906 65.742188 52.476562 66.855469 C 52.824219 67.945312 53.3125 68.871094 53.9375 69.636719 C 54.566406 70.402344 55.308594 70.992188 56.164062 71.410156 C 57.023438 71.828125 57.972656 72.035156 59.015625 72.035156 Z M 84.699219 51.414062 C 86.484375 51.414062 88.074219 51.726562 89.464844 52.351562 C 90.855469 52.976562 92.027344 53.835938 92.976562 54.925781 C 93.929688 55.992188 94.648438 57.234375 95.136719 58.648438 C 95.644531 60.0625 95.898438 61.546875 95.898438 63.097656 C 95.898438 64.628906 95.65625 66.113281 95.167969 67.550781 C 94.683594 68.964844 93.953125 70.21875 92.976562 71.308594 C 92.027344 72.394531 90.832031 73.277344 89.394531 73.949219 C 87.980469 74.597656 86.335938 74.921875 84.457031 74.921875 C 82.648438 74.921875 81.058594 74.609375 79.691406 73.984375 C 78.320312 73.359375 77.175781 72.523438 76.246094 71.480469 C 75.34375 70.414062 74.65625 69.183594 74.195312 67.792969 C 73.730469 66.378906 73.5 64.894531 73.5 63.34375 C 73.5 61.695312 73.753906 60.15625 74.265625 58.71875 C 74.773438 57.257812 75.503906 55.992188 76.457031 54.925781 C 77.40625 53.835938 78.578125 52.976562 79.96875 52.351562 C 81.359375 51.726562 82.9375 51.414062 84.699219 51.414062 Z M 84.664062 72.035156 C 85.800781 72.035156 86.808594 71.804688 87.691406 71.339844 C 88.59375 70.855469 89.347656 70.21875 89.953125 69.429688 C 90.554688 68.617188 91.019531 67.679688 91.34375 66.613281 C 91.667969 65.523438 91.832031 64.363281 91.832031 63.132812 C 91.832031 61.882812 91.65625 60.722656 91.308594 59.65625 C 90.984375 58.566406 90.496094 57.628906 89.847656 56.839844 C 89.222656 56.050781 88.457031 55.4375 87.550781 54.996094 C 86.648438 54.53125 85.628906 54.300781 84.492188 54.300781 C 83.378906 54.300781 82.390625 54.519531 81.535156 54.960938 C 80.675781 55.402344 79.957031 56.015625 79.378906 56.804688 C 78.796875 57.59375 78.355469 58.53125 78.054688 59.621094 C 77.753906 60.6875 77.601562 61.847656 77.601562 63.097656 C 77.601562 64.488281 77.777344 65.742188 78.125 66.855469 C 78.472656 67.945312 78.960938 68.871094 79.585938 69.636719 C 80.210938 70.402344 80.953125 70.992188 81.8125 71.410156 C 82.671875 71.828125 83.621094 72.035156 84.664062 72.035156 Z M 101.621094 55.515625 C 101.574219 54.9375 101.472656 54.496094 101.308594 54.195312 C 101.148438 53.894531 100.960938 53.675781 100.753906 53.535156 C 100.542969 53.347656 100.324219 53.246094 100.089844 53.222656 C 99.882812 53.199219 99.488281 53.1875 98.910156 53.1875 L 98.734375 53.046875 L 98.628906 51.726562 L 98.699219 51.585938 C 98.863281 51.585938 99.09375 51.597656 99.394531 51.621094 C 99.699219 51.644531 100.023438 51.667969 100.371094 51.691406 C 100.71875 51.714844 101.054688 51.738281 101.378906 51.761719 C 101.726562 51.785156 102.027344 51.796875 102.28125 51.796875 L 105.65625 51.796875 C 105.933594 51.796875 106.285156 51.796875 106.699219 51.796875 C 107.140625 51.773438 107.582031 51.75 108.023438 51.726562 C 108.464844 51.703125 108.878906 51.691406 109.273438 51.691406 C 109.691406 51.667969 110.039062 51.65625 110.316406 51.65625 C 112.128906 51.65625 113.738281 51.96875 115.152344 52.597656 C 116.589844 53.199219 117.796875 54.023438 118.769531 55.066406 C 119.746094 56.109375 120.488281 57.324219 120.996094 58.71875 C 121.53125 60.109375 121.796875 61.582031 121.796875 63.132812 C 121.796875 64.664062 121.542969 66.125 121.03125 67.515625 C 120.546875 68.882812 119.816406 70.101562 118.839844 71.167969 C 117.867188 72.210938 116.648438 73.046875 115.1875 73.671875 C 113.726562 74.296875 112.035156 74.609375 110.109375 74.609375 C 109.925781 74.609375 109.632812 74.597656 109.238281 74.574219 C 108.867188 74.574219 108.464844 74.574219 108.023438 74.574219 C 107.605469 74.574219 107.1875 74.5625 106.769531 74.542969 C 106.375 74.542969 106.0625 74.542969 105.832031 74.542969 L 102.597656 74.542969 C 102.433594 74.542969 102.167969 74.554688 101.796875 74.574219 C 101.425781 74.597656 101.042969 74.621094 100.648438 74.644531 C 100.253906 74.667969 99.871094 74.691406 99.5 74.714844 C 99.128906 74.738281 98.863281 74.75 98.699219 74.75 L 98.628906 74.609375 L 98.734375 73.289062 L 98.910156 73.148438 C 99.1875 73.148438 99.511719 73.136719 99.882812 73.113281 C 100.253906 73.070312 100.542969 72.976562 100.753906 72.835938 C 100.9375 72.699219 101.113281 72.476562 101.273438 72.175781 C 101.4375 71.875 101.550781 71.421875 101.621094 70.820312 C 101.621094 70.65625 101.621094 70.472656 101.621094 70.261719 C 101.644531 70.03125 101.65625 69.753906 101.65625 69.429688 C 101.679688 69.105469 101.691406 68.710938 101.691406 68.246094 C 101.691406 67.78125 101.691406 67.203125 101.691406 66.507812 L 101.691406 60.839844 C 101.691406 60.605469 101.691406 60.257812 101.691406 59.796875 C 101.691406 59.308594 101.691406 58.796875 101.691406 58.265625 C 101.691406 57.730469 101.679688 57.210938 101.65625 56.699219 C 101.65625 56.191406 101.644531 55.796875 101.621094 55.515625 Z M 108.960938 71.828125 C 110.351562 71.828125 111.582031 71.609375 112.648438 71.167969 C 113.714844 70.703125 114.609375 70.078125 115.328125 69.289062 C 116.070312 68.5 116.625 67.585938 116.996094 66.542969 C 117.390625 65.476562 117.589844 64.339844 117.589844 63.132812 C 117.589844 61.882812 117.390625 60.734375 116.996094 59.691406 C 116.601562 58.625 116.023438 57.707031 115.257812 56.941406 C 114.515625 56.179688 113.601562 55.585938 112.511719 55.167969 C 111.417969 54.730469 110.179688 54.507812 108.789062 54.507812 L 105.726562 54.507812 C 105.679688 55.179688 105.644531 55.75 105.621094 56.210938 C 105.621094 56.652344 105.609375 57.105469 105.585938 57.570312 C 105.5625 58.03125 105.550781 58.542969 105.550781 59.097656 C 105.550781 59.632812 105.550781 60.316406 105.550781 61.152344 L 105.550781 65.464844 C 105.550781 66.855469 105.550781 67.945312 105.550781 68.734375 C 105.574219 69.5 105.609375 70.078125 105.65625 70.472656 C 105.726562 71.074219 105.878906 71.457031 106.109375 71.621094 C 106.339844 71.757812 106.757812 71.828125 107.363281 71.828125 Z M 136.132812 55.515625 C 136.089844 55.125 135.996094 54.742188 135.855469 54.371094 C 135.742188 53.976562 135.554688 53.6875 135.300781 53.5 C 135.113281 53.382812 134.882812 53.304688 134.605469 53.257812 C 134.324219 53.210938 133.941406 53.1875 133.457031 53.1875 L 133.28125 53.046875 L 133.179688 51.726562 L 133.246094 51.585938 C 133.457031 51.609375 133.734375 51.632812 134.082031 51.65625 C 134.453125 51.679688 134.824219 51.703125 135.195312 51.726562 C 135.589844 51.75 135.960938 51.773438 136.308594 51.796875 C 136.65625 51.796875 136.933594 51.796875 137.144531 51.796875 L 139.195312 51.796875 C 139.40625 51.796875 139.671875 51.796875 139.996094 51.796875 C 140.34375 51.773438 140.703125 51.75 141.074219 51.726562 C 141.46875 51.703125 141.839844 51.679688 142.1875 51.65625 C 142.558594 51.632812 142.859375 51.609375 143.089844 51.585938 L 143.160156 51.726562 L 143.058594 53.046875 L 142.917969 53.1875 C 142.335938 53.1875 141.910156 53.222656 141.628906 53.292969 C 141.375 53.335938 141.167969 53.417969 141.003906 53.535156 C 140.515625 53.859375 140.238281 54.519531 140.167969 55.515625 C 140.144531 55.75 140.125 55.992188 140.101562 56.246094 C 140.101562 56.480469 140.101562 56.792969 140.101562 57.1875 C 140.101562 57.558594 140.101562 58.03125 140.101562 58.613281 C 140.101562 59.191406 140.101562 59.921875 140.101562 60.804688 L 140.101562 65.464844 C 140.101562 66.367188 140.101562 67.109375 140.101562 67.691406 C 140.101562 68.246094 140.101562 68.722656 140.101562 69.117188 C 140.125 69.488281 140.136719 69.824219 140.136719 70.125 C 140.15625 70.402344 140.191406 70.738281 140.238281 71.132812 C 140.261719 71.597656 140.527344 71.828125 141.039062 71.828125 L 144.273438 71.828125 C 145.039062 71.828125 145.640625 71.816406 146.082031 71.792969 C 146.546875 71.746094 146.90625 71.65625 147.160156 71.515625 C 147.417969 71.351562 147.613281 71.132812 147.753906 70.855469 C 147.890625 70.578125 148.019531 70.195312 148.136719 69.707031 L 148.238281 69.566406 L 149.839844 69.566406 L 149.214844 74.332031 L 148.933594 74.679688 C 148.75 74.65625 148.460938 74.632812 148.066406 74.609375 C 147.671875 74.609375 147.253906 74.597656 146.8125 74.574219 C 146.371094 74.574219 145.933594 74.5625 145.492188 74.542969 C 145.074219 74.542969 144.75 74.542969 144.519531 74.542969 L 137.144531 74.542969 C 136.980469 74.542969 136.714844 74.542969 136.34375 74.542969 C 135.996094 74.5625 135.625 74.585938 135.230469 74.609375 C 134.835938 74.632812 134.453125 74.65625 134.082031 74.679688 C 133.710938 74.703125 133.433594 74.726562 133.246094 74.75 L 133.179688 74.609375 L 133.28125 73.289062 L 133.457031 73.148438 C 134.335938 73.148438 134.941406 73.023438 135.265625 72.765625 C 135.449219 72.605469 135.625 72.351562 135.785156 72.003906 C 135.972656 71.65625 136.089844 71.25 136.132812 70.785156 C 136.15625 70.554688 136.167969 70.238281 136.167969 69.847656 C 136.191406 69.429688 136.203125 69 136.203125 68.558594 C 136.226562 68.117188 136.238281 67.714844 136.238281 67.34375 C 136.238281 66.949219 136.238281 66.667969 136.238281 66.507812 L 136.238281 60.839844 C 136.238281 59.5625 136.226562 58.449219 136.203125 57.5 C 136.203125 56.527344 136.179688 55.863281 136.132812 55.515625 Z M 161.574219 51.726562 L 161.46875 53.046875 L 161.328125 53.1875 C 160.957031 53.1875 160.609375 53.210938 160.285156 53.257812 C 159.960938 53.28125 159.683594 53.371094 159.449219 53.535156 C 159.242188 53.695312 159.046875 53.90625 158.859375 54.160156 C 158.695312 54.414062 158.617188 54.867188 158.617188 55.515625 C 158.59375 55.84375 158.570312 56.144531 158.546875 56.421875 C 158.546875 56.699219 158.535156 57.023438 158.511719 57.394531 C 158.511719 57.765625 158.511719 58.21875 158.511719 58.75 C 158.511719 59.285156 158.511719 59.96875 158.511719 60.804688 L 158.511719 65.8125 C 158.511719 66.644531 158.511719 67.332031 158.511719 67.863281 C 158.511719 68.375 158.511719 68.800781 158.511719 69.152344 C 158.535156 69.5 158.546875 69.800781 158.546875 70.054688 C 158.570312 70.285156 158.59375 70.542969 158.617188 70.820312 C 158.664062 71.46875 158.765625 71.921875 158.929688 72.175781 C 159.089844 72.429688 159.265625 72.640625 159.449219 72.800781 C 159.660156 72.964844 159.925781 73.070312 160.25 73.113281 C 160.597656 73.136719 160.957031 73.148438 161.328125 73.148438 L 161.46875 73.289062 L 161.574219 74.609375 L 161.503906 74.75 C 161.339844 74.75 161.074219 74.738281 160.703125 74.714844 C 160.332031 74.691406 159.949219 74.667969 159.554688 74.644531 C 159.160156 74.621094 158.777344 74.597656 158.40625 74.574219 C 158.035156 74.554688 157.769531 74.542969 157.605469 74.542969 L 155.554688 74.542969 C 155.390625 74.542969 155.125 74.554688 154.753906 74.574219 C 154.382812 74.597656 154 74.621094 153.605469 74.644531 C 153.210938 74.667969 152.828125 74.691406 152.460938 74.714844 C 152.089844 74.738281 151.820312 74.75 151.660156 74.75 L 151.589844 74.609375 L 151.695312 73.289062 L 151.867188 73.148438 C 152.238281 73.148438 152.585938 73.136719 152.910156 73.113281 C 153.257812 73.070312 153.527344 72.964844 153.710938 72.800781 C 153.898438 72.640625 154.058594 72.429688 154.199219 72.175781 C 154.359375 71.921875 154.488281 71.46875 154.582031 70.820312 C 154.582031 70.65625 154.582031 70.472656 154.582031 70.261719 C 154.605469 70.03125 154.617188 69.753906 154.617188 69.429688 C 154.640625 69.105469 154.652344 68.710938 154.652344 68.246094 C 154.652344 67.78125 154.652344 67.203125 154.652344 66.507812 L 154.652344 60.839844 C 154.652344 60.027344 154.652344 59.34375 154.652344 58.785156 C 154.652344 58.230469 154.640625 57.753906 154.617188 57.359375 C 154.617188 56.964844 154.605469 56.628906 154.582031 56.351562 C 154.582031 56.074219 154.570312 55.796875 154.546875 55.515625 C 154.5 54.914062 154.394531 54.472656 154.234375 54.195312 C 154.070312 53.917969 153.898438 53.695312 153.710938 53.535156 C 153.503906 53.371094 153.234375 53.28125 152.910156 53.257812 C 152.585938 53.210938 152.238281 53.1875 151.867188 53.1875 L 151.695312 53.046875 L 151.589844 51.726562 L 151.660156 51.585938 C 151.820312 51.585938 152.089844 51.597656 152.460938 51.621094 C 152.828125 51.644531 153.210938 51.667969 153.605469 51.691406 C 154 51.714844 154.382812 51.738281 154.753906 51.761719 C 155.125 51.785156 155.390625 51.796875 155.554688 51.796875 L 157.605469 51.796875 C 157.769531 51.796875 158.035156 51.785156 158.40625 51.761719 C 158.777344 51.738281 159.160156 51.714844 159.554688 51.691406 C 159.949219 51.667969 160.332031 51.644531 160.703125 51.621094 C 161.074219 51.597656 161.339844 51.585938 161.503906 51.585938 Z M 168.605469 57.046875 C 168.605469 57.648438 168.769531 58.160156 169.09375 58.578125 C 169.417969 58.996094 169.859375 59.367188 170.414062 59.691406 C 170.972656 59.992188 171.621094 60.28125 172.363281 60.558594 C 173.105469 60.839844 173.894531 61.128906 174.726562 61.429688 C 175.5625 61.753906 176.363281 62.101562 177.128906 62.472656 C 177.894531 62.820312 178.566406 63.261719 179.144531 63.792969 C 179.75 64.304688 180.222656 64.917969 180.570312 65.636719 C 180.941406 66.332031 181.128906 67.179688 181.128906 68.175781 C 181.128906 69.195312 180.929688 70.125 180.535156 70.957031 C 180.144531 71.769531 179.574219 72.476562 178.832031 73.082031 C 178.113281 73.660156 177.222656 74.113281 176.152344 74.4375 C 175.109375 74.761719 173.941406 74.921875 172.640625 74.921875 C 171.25 74.921875 169.859375 74.75 168.464844 74.402344 C 167.074219 74.054688 165.835938 73.578125 164.746094 72.976562 L 164.605469 72.523438 L 165.40625 67.863281 L 166.972656 67.863281 L 167.144531 68.074219 C 167.285156 69.671875 167.816406 70.808594 168.746094 71.480469 C 169.695312 72.152344 170.984375 72.488281 172.605469 72.488281 C 174.207031 72.488281 175.367188 72.210938 176.085938 71.65625 C 176.804688 71.074219 177.164062 70.230469 177.164062 69.117188 C 177.164062 68.398438 177.011719 67.804688 176.710938 67.34375 C 176.410156 66.878906 175.980469 66.484375 175.421875 66.160156 C 174.890625 65.835938 174.242188 65.546875 173.476562 65.289062 C 172.710938 65.035156 171.863281 64.734375 170.9375 64.386719 C 170.101562 64.085938 169.324219 63.761719 168.605469 63.410156 C 167.886719 63.042969 167.261719 62.613281 166.726562 62.125 C 166.21875 61.613281 165.8125 61.011719 165.511719 60.316406 C 165.207031 59.621094 165.058594 58.785156 165.058594 57.8125 C 165.058594 55.773438 165.71875 54.195312 167.039062 53.082031 C 168.386719 51.96875 170.425781 51.414062 173.164062 51.414062 C 174.414062 51.414062 175.585938 51.5625 176.675781 51.867188 C 177.765625 52.144531 178.683594 52.480469 179.425781 52.875 L 179.5625 53.257812 L 179.007812 57.222656 L 177.335938 57.222656 L 177.164062 57.046875 C 177.023438 56.074219 176.605469 55.320312 175.910156 54.785156 C 175.214844 54.253906 174.242188 53.988281 172.988281 53.988281 C 171.597656 53.988281 170.519531 54.265625 169.753906 54.820312 C 168.988281 55.378906 168.605469 56.121094 168.605469 57.046875 Z M 198.089844 74.75 C 197.925781 74.75 197.671875 74.738281 197.324219 74.714844 C 196.976562 74.691406 196.605469 74.667969 196.210938 74.644531 C 195.816406 74.621094 195.445312 74.597656 195.097656 74.574219 C 194.75 74.554688 194.496094 74.542969 194.332031 74.542969 L 190.957031 74.542969 C 190.796875 74.542969 190.539062 74.554688 190.191406 74.574219 C 189.84375 74.597656 189.472656 74.621094 189.078125 74.644531 C 188.707031 74.667969 188.347656 74.691406 188 74.714844 C 187.652344 74.738281 187.398438 74.75 187.234375 74.75 L 187.167969 74.609375 L 187.269531 73.289062 L 187.445312 73.148438 C 187.792969 73.148438 188.199219 73.136719 188.660156 73.113281 C 189.148438 73.09375 189.496094 72.988281 189.707031 72.800781 C 189.890625 72.640625 190.078125 72.429688 190.261719 72.175781 C 190.449219 71.921875 190.574219 71.46875 190.644531 70.820312 C 190.667969 70.65625 190.679688 70.472656 190.679688 70.261719 C 190.703125 70.03125 190.714844 69.753906 190.714844 69.429688 C 190.738281 69.105469 190.75 68.710938 190.75 68.246094 C 190.75 67.78125 190.75 67.203125 190.75 66.507812 L 190.75 60.144531 C 190.75 58.867188 190.738281 57.730469 190.714844 56.734375 C 190.691406 55.738281 190.667969 54.996094 190.644531 54.507812 L 190.261719 54.507812 C 189.378906 54.507812 188.648438 54.519531 188.070312 54.542969 C 187.492188 54.542969 187.027344 54.566406 186.679688 54.613281 C 186.332031 54.636719 186.066406 54.671875 185.878906 54.71875 C 185.714844 54.765625 185.601562 54.820312 185.53125 54.890625 C 185.277344 55.007812 185.066406 55.191406 184.90625 55.449219 C 184.742188 55.703125 184.636719 56.003906 184.59375 56.351562 L 184.453125 56.492188 L 182.957031 56.492188 L 183.199219 51.832031 L 183.339844 51.519531 L 183.546875 51.414062 C 183.734375 51.484375 184.140625 51.550781 184.765625 51.621094 C 185.390625 51.667969 186.078125 51.703125 186.816406 51.726562 C 187.558594 51.75 188.269531 51.773438 188.941406 51.796875 C 189.636719 51.796875 190.132812 51.796875 190.4375 51.796875 L 194.820312 51.796875 C 195.121094 51.796875 195.605469 51.796875 196.28125 51.796875 C 196.976562 51.773438 197.695312 51.75 198.4375 51.726562 C 199.179688 51.703125 199.863281 51.667969 200.488281 51.621094 C 201.113281 51.550781 201.519531 51.484375 201.707031 51.414062 L 201.914062 51.519531 L 202.054688 51.832031 L 202.332031 56.492188 L 200.800781 56.492188 L 200.664062 56.351562 C 200.617188 56.003906 200.511719 55.703125 200.351562 55.449219 C 200.1875 55.191406 199.980469 55.007812 199.722656 54.890625 C 199.652344 54.796875 199.527344 54.730469 199.339844 54.683594 C 199.179688 54.613281 198.921875 54.566406 198.574219 54.542969 C 198.226562 54.519531 197.765625 54.507812 197.183594 54.507812 C 196.628906 54.507812 195.910156 54.507812 195.027344 54.507812 L 194.644531 54.507812 C 194.621094 55.066406 194.597656 55.808594 194.574219 56.734375 C 194.574219 57.660156 194.574219 58.785156 194.574219 60.109375 L 194.574219 65.8125 C 194.574219 66.644531 194.574219 67.332031 194.574219 67.863281 C 194.574219 68.375 194.574219 68.800781 194.574219 69.152344 C 194.597656 69.5 194.609375 69.800781 194.609375 70.054688 C 194.632812 70.285156 194.65625 70.542969 194.679688 70.820312 C 194.726562 71.492188 194.855469 71.957031 195.0625 72.210938 C 195.269531 72.464844 195.46875 72.664062 195.652344 72.800781 C 195.746094 72.894531 195.875 72.964844 196.035156 73.011719 C 196.222656 73.058594 196.417969 73.09375 196.628906 73.113281 C 196.835938 73.136719 197.046875 73.148438 197.253906 73.148438 C 197.484375 73.148438 197.695312 73.148438 197.878906 73.148438 L 198.054688 73.289062 L 198.15625 74.609375 Z M 198.089844 74.75 " fill-opacity="1" fill-rule="nonzero"/><path fill="#d9bd80" d="M 103.371094 31.1875 L 100.242188 31.1875 L 100.242188 39.746094 L 98.941406 39.746094 L 98.941406 31.1875 L 95.808594 31.1875 L 95.808594 30.089844 L 103.371094 30.089844 Z M 116.675781 30.089844 L 116.675781 39.746094 L 115.367188 39.746094 L 115.367188 35.355469 L 110.15625 35.355469 L 110.15625 39.746094 L 108.847656 39.746094 L 108.847656 30.089844 L 110.15625 30.089844 L 110.15625 34.398438 L 115.367188 34.398438 L 115.367188 30.089844 Z M 129.144531 38.683594 L 129.140625 39.746094 L 123.1875 39.746094 L 123.1875 30.089844 L 129.140625 30.089844 L 129.140625 31.15625 L 124.496094 31.15625 L 124.496094 34.363281 L 128.257812 34.363281 L 128.257812 35.386719 L 124.496094 35.386719 L 124.496094 38.683594 Z M 129.144531 38.683594 " fill-opacity="1" fill-rule="nonzero"/><path fill="#d9bd80" d="M 115.25 94.550781 C 115.25 92.667969 115.738281 91.097656 115.988281 90.410156 C 115.753906 90.253906 115.339844 90.054688 114.761719 90.054688 C 113.933594 90.054688 112.882812 90.804688 112.542969 91.09375 C 112.453125 91.171875 112.332031 91.222656 112.199219 91.222656 C 112.070312 91.222656 111.949219 91.171875 111.855469 91.09375 C 111.519531 90.804688 110.46875 90.054688 109.640625 90.054688 C 109.058594 90.054688 108.648438 90.25 108.414062 90.410156 C 108.664062 91.097656 109.148438 92.667969 109.148438 94.550781 C 109.148438 96.4375 108.664062 98.007812 108.414062 98.695312 C 108.648438 98.851562 109.058594 99.050781 109.640625 99.050781 C 110.355469 99.050781 111.230469 98.496094 111.679688 98.15625 L 111.679688 94.550781 C 111.679688 94.265625 111.910156 94.03125 112.199219 94.03125 C 112.488281 94.03125 112.722656 94.265625 112.722656 94.550781 L 112.722656 98.15625 C 113.167969 98.496094 114.046875 99.050781 114.761719 99.050781 C 115.339844 99.050781 115.75 98.855469 115.988281 98.695312 C 115.738281 98.007812 115.25 96.4375 115.25 94.550781 Z M 115.25 94.550781 " fill-opacity="1" fill-rule="nonzero"/><g clip-path="url(#188e1e07e8)"><path fill="#d9bd80" d="M 103.085938 104.753906 L 97.617188 113.890625 L 103.355469 122.105469 L 108.984375 100.03125 C 108.515625 99.9375 108.144531 99.761719 107.882812 99.59375 C 107.152344 100.535156 105.300781 102.8125 103.085938 104.753906 Z M 103.085938 104.753906 " fill-opacity="1" fill-rule="nonzero"/></g><path fill="#d9bd80" d="M 80.308594 88.941406 L 80.308594 100.144531 L 90.628906 100.144531 C 90.285156 98.179688 90.191406 96.171875 90.191406 94.550781 C 90.191406 92.839844 90.519531 90.796875 91.203125 88.941406 Z M 80.308594 88.941406 " fill-opacity="1" fill-rule="nonzero"/><path fill="#d9bd80" d="M 107.332031 98.59375 C 107.390625 98.449219 107.5625 98 107.730469 97.355469 L 101.972656 98.964844 C 101.925781 98.976562 101.878906 98.984375 101.832031 98.984375 C 101.605469 98.984375 101.394531 98.832031 101.328125 98.601562 C 101.253906 98.324219 101.414062 98.035156 101.691406 97.957031 L 107.972656 96.203125 C 108.027344 95.851562 108.070312 95.472656 108.089844 95.074219 L 101.210938 95.074219 C 99.683594 95.074219 98.175781 95.804688 96.964844 97.132812 C 96.859375 97.246094 96.71875 97.304688 96.578125 97.304688 C 96.453125 97.304688 96.324219 97.261719 96.226562 97.167969 C 96.011719 96.972656 95.996094 96.644531 96.191406 96.429688 C 97.601562 94.882812 99.386719 94.03125 101.210938 94.03125 L 108.089844 94.03125 C 108.070312 93.632812 108.027344 93.253906 107.972656 92.902344 L 101.691406 91.148438 C 101.414062 91.070312 101.253906 90.78125 101.328125 90.503906 C 101.40625 90.226562 101.695312 90.0625 101.972656 90.140625 L 107.730469 91.75 C 107.578125 91.164062 107.421875 90.738281 107.351562 90.558594 C 106.539062 89.835938 100.109375 84.210938 96.621094 84.675781 C 92.949219 85.164062 91.234375 90.859375 91.234375 94.550781 C 91.234375 98.058594 91.75 106.28125 96.496094 106.875 C 100.011719 107.316406 105.472656 101.09375 107.332031 98.59375 Z M 107.332031 98.59375 " fill-opacity="1" fill-rule="nonzero"/><path fill="#d9bd80" d="M 133.199219 88.941406 C 133.882812 90.796875 134.210938 92.839844 134.210938 94.550781 C 134.210938 96.171875 134.117188 98.179688 133.769531 100.144531 L 144.089844 100.144531 L 144.089844 88.941406 Z M 133.199219 88.941406 " fill-opacity="1" fill-rule="nonzero"/><g clip-path="url(#c976b2540c)"><path fill="#d9bd80" d="M 116.519531 99.59375 C 116.253906 99.761719 115.886719 99.9375 115.417969 100.03125 L 121.046875 122.105469 L 126.785156 113.890625 L 121.3125 104.753906 C 119.101562 102.8125 117.25 100.535156 116.519531 99.59375 Z M 116.519531 99.59375 " fill-opacity="1" fill-rule="nonzero"/></g><path fill="#d9bd80" d="M 127.78125 84.675781 C 124.289062 84.207031 117.863281 89.835938 117.050781 90.558594 C 116.980469 90.738281 116.820312 91.164062 116.667969 91.75 L 122.425781 90.140625 C 122.703125 90.066406 122.992188 90.226562 123.070312 90.503906 C 123.148438 90.78125 122.988281 91.070312 122.707031 91.148438 L 116.429688 92.902344 C 116.375 93.253906 116.332031 93.632812 116.3125 94.03125 L 123.1875 94.03125 C 125.015625 94.03125 126.796875 94.882812 128.210938 96.429688 C 128.40625 96.644531 128.390625 96.972656 128.175781 97.167969 C 128.074219 97.261719 127.949219 97.304688 127.824219 97.304688 C 127.683594 97.304688 127.539062 97.246094 127.4375 97.132812 C 126.226562 95.804688 124.71875 95.074219 123.1875 95.074219 L 116.3125 95.074219 C 116.332031 95.472656 116.375 95.851562 116.429688 96.203125 L 122.707031 97.957031 C 122.988281 98.035156 123.148438 98.324219 123.070312 98.601562 C 123.007812 98.832031 122.796875 98.984375 122.566406 98.984375 C 122.519531 98.984375 122.472656 98.976562 122.425781 98.964844 L 116.667969 97.355469 C 116.835938 98 117.011719 98.449219 117.070312 98.59375 C 118.929688 101.09375 124.390625 107.316406 127.902344 106.875 C 132.652344 106.28125 133.164062 98.058594 133.164062 94.550781 C 133.164062 90.859375 131.453125 85.164062 127.78125 84.675781 Z M 127.78125 84.675781 " fill-opacity="1" fill-rule="nonzero"/></svg>