<svg xmlns="http://www.w3.org/2000/svg" xmlns:xlink="http://www.w3.org/1999/xlink" width="280" zoomAndPan="magnify" viewBox="0 0 210 209.999996" height="280" preserveAspectRatio="xMidYMid meet" version="1.0"><path fill="#f7931e" d="M 21 0 L 105 0 L 105 105 L 0 105 L 0 21 C 0 9.414062 9.414062 0 21 0 Z M 21 0 " fill-opacity="1" fill-rule="nonzero"/><path fill="#29abe2" d="M 0 105 L 105 105 L 105 210 L 21 210 C 9.414062 210 0 200.585938 0 189 Z M 0 105 " fill-opacity="1" fill-rule="nonzero"/><path fill="#e6e6e6" d="M 105 0 L 189 0 C 200.585938 0 210 9.414062 210 21 L 210 105 L 105 105 Z M 105 0 " fill-opacity="1" fill-rule="nonzero"/><path fill="#8cc63f" d="M 105 105 L 210 105 L 210 189 C 210 200.585938 200.585938 210 189 210 L 105 210 Z M 105 105 " fill-opacity="1" fill-rule="nonzero"/><path fill="#ffcf00" d="M 66.5 52.5 C 66.5 53.417969 66.410156 54.328125 66.230469 55.230469 C 66.050781 56.132812 65.785156 57.007812 65.433594 57.859375 C 65.082031 58.707031 64.652344 59.511719 64.140625 60.277344 C 63.628906 61.042969 63.050781 61.75 62.398438 62.398438 C 61.75 63.050781 61.042969 63.628906 60.277344 64.140625 C 59.511719 64.652344 58.707031 65.082031 57.859375 65.433594 C 57.007812 65.785156 56.132812 66.050781 55.230469 66.230469 C 54.328125 66.410156 53.417969 66.5 52.5 66.5 C 51.582031 66.5 50.671875 66.410156 49.769531 66.230469 C 48.867188 66.050781 47.992188 65.785156 47.140625 65.433594 C 46.292969 65.082031 45.488281 64.652344 44.722656 64.140625 C 43.957031 63.628906 43.25 63.050781 42.601562 62.398438 C 41.949219 61.75 41.371094 61.042969 40.859375 60.277344 C 40.347656 59.511719 39.917969 58.707031 39.566406 57.859375 C 39.214844 57.007812 38.949219 56.132812 38.769531 55.230469 C 38.589844 54.328125 38.5 53.417969 38.5 52.5 C 38.5 51.582031 38.589844 50.671875 38.769531 49.769531 C 38.949219 48.867188 39.214844 47.992188 39.566406 47.140625 C 39.917969 46.292969 40.347656 45.488281 40.859375 44.722656 C 41.371094 43.957031 41.949219 43.25 42.601562 42.601562 C 43.25 41.949219 43.957031 41.371094 44.722656 40.859375 C 45.488281 40.347656 46.292969 39.917969 47.140625 39.566406 C 47.992188 39.214844 48.867188 38.949219 49.769531 38.769531 C 50.671875 38.589844 51.582031 38.5 52.5 38.5 C 53.417969 38.5 54.328125 38.589844 55.230469 38.769531 C 56.132812 38.949219 57.007812 39.214844 57.859375 39.566406 C 58.707031 39.917969 59.511719 40.347656 60.277344 40.859375 C 61.042969 41.371094 61.75 41.949219 62.398438 42.601562 C 63.050781 43.25 63.628906 43.957031 64.140625 44.722656 C 64.652344 45.488281 65.082031 46.292969 65.433594 47.140625 C 65.785156 47.992188 66.050781 48.867188 66.230469 49.769531 C 66.410156 50.671875 66.5 51.582031 66.5 52.5 Z M 66.5 52.5 " fill-opacity="1" fill-rule="nonzero"/><path fill="#ffcf00" d="M 52.5 31.5 C 50.574219 31.5 49 29.925781 49 28 L 49 17.5 C 49 15.574219 50.574219 14 52.5 14 C 54.425781 14 56 15.574219 56 17.5 L 56 28 C 56 29.925781 54.425781 31.5 52.5 31.5 Z M 52.5 31.5 " fill-opacity="1" fill-rule="nonzero"/><path fill="#ffcf00" d="M 40.25 34.789062 C 39.023438 34.789062 37.871094 34.160156 37.203125 33.039062 L 33.703125 26.984375 C 32.726562 25.304688 33.320312 23.171875 35 22.191406 C 36.679688 21.210938 38.816406 21.804688 39.796875 23.484375 L 43.296875 29.539062 C 44.273438 31.21875 43.679688 33.355469 42 34.335938 C 41.441406 34.648438 40.84375 34.789062 40.25 34.789062 Z M 40.25 34.789062 " fill-opacity="1" fill-rule="nonzero"/><path fill="#ffcf00" d="M 30.449219 43.75 C 29.890625 43.75 29.296875 43.609375 28.769531 43.296875 L 19.320312 38.046875 C 17.640625 37.101562 17.011719 34.964844 17.953125 33.285156 C 18.898438 31.605469 21.035156 30.976562 22.714844 31.921875 L 32.164062 37.171875 C 33.84375 38.113281 34.476562 40.25 33.53125 41.929688 C 32.898438 43.085938 31.710938 43.714844 30.449219 43.714844 Z M 30.449219 43.75 " fill-opacity="1" fill-rule="nonzero"/><path fill="#ffcf00" d="M 28 56 L 21 56 C 19.074219 56 17.5 54.425781 17.5 52.5 C 17.5 50.574219 19.074219 49 21 49 L 28 49 C 29.925781 49 31.5 50.574219 31.5 52.5 C 31.5 54.425781 29.925781 56 28 56 Z M 28 56 " fill-opacity="1" fill-rule="nonzero"/><path fill="#ffcf00" d="M 21 73.5 C 19.773438 73.5 18.585938 72.835938 17.921875 71.714844 C 16.976562 70.035156 17.605469 67.898438 19.285156 66.953125 L 28.734375 61.703125 C 30.414062 60.761719 32.550781 61.390625 33.496094 63.070312 C 34.441406 64.75 33.808594 66.886719 32.128906 67.828125 L 22.679688 73.078125 C 22.15625 73.394531 21.558594 73.535156 21 73.535156 Z M 21 73.5 " fill-opacity="1" fill-rule="nonzero"/><path fill="#ffcf00" d="M 36.75 83.265625 C 36.15625 83.265625 35.558594 83.125 35 82.808594 C 33.320312 81.828125 32.761719 79.695312 33.703125 78.015625 L 37.203125 71.960938 C 38.183594 70.28125 40.320312 69.71875 42 70.664062 C 43.679688 71.644531 44.238281 73.78125 43.296875 75.460938 L 39.796875 81.515625 C 39.128906 82.636719 37.976562 83.265625 36.75 83.265625 Z M 36.75 83.265625 " fill-opacity="1" fill-rule="nonzero"/><path fill="#ffcf00" d="M 52.5 91 C 50.574219 91 49 89.425781 49 87.5 L 49 77 C 49 75.074219 50.574219 73.5 52.5 73.5 C 54.425781 73.5 56 75.074219 56 77 L 56 87.5 C 56 89.425781 54.425781 91 52.5 91 Z M 52.5 91 " fill-opacity="1" fill-rule="nonzero"/><path fill="#ffcf00" d="M 68.25 83.265625 C 67.023438 83.265625 65.871094 82.636719 65.203125 81.515625 L 61.703125 75.460938 C 60.726562 73.78125 61.320312 71.644531 63 70.664062 C 64.679688 69.683594 66.816406 70.28125 67.796875 71.960938 L 71.296875 78.015625 C 72.273438 79.695312 71.679688 81.828125 70 82.808594 C 69.441406 83.125 68.84375 83.265625 68.25 83.265625 Z M 68.25 83.265625 " fill-opacity="1" fill-rule="nonzero"/><path fill="#ffcf00" d="M 84 73.5 C 83.441406 73.5 82.84375 73.359375 82.320312 73.046875 L 72.871094 67.796875 C 71.191406 66.851562 70.558594 64.714844 71.503906 63.035156 C 72.449219 61.355469 74.585938 60.726562 76.265625 61.671875 L 85.714844 66.921875 C 87.394531 67.863281 88.023438 70 87.078125 71.679688 C 86.449219 72.835938 85.261719 73.464844 84 73.464844 Z M 84 73.5 " fill-opacity="1" fill-rule="nonzero"/><path fill="#ffcf00" d="M 84 56 L 77 56 C 75.074219 56 73.5 54.425781 73.5 52.5 C 73.5 50.574219 75.074219 49 77 49 L 84 49 C 85.925781 49 87.5 50.574219 87.5 52.5 C 87.5 54.425781 85.925781 56 84 56 Z M 84 56 " fill-opacity="1" fill-rule="nonzero"/><path fill="#ffcf00" d="M 74.550781 43.75 C 73.324219 43.75 72.136719 43.085938 71.46875 41.964844 C 70.523438 40.285156 71.15625 38.148438 72.835938 37.203125 L 82.285156 31.953125 C 83.964844 31.011719 86.101562 31.640625 87.046875 33.320312 C 87.988281 35 87.359375 37.136719 85.679688 38.078125 L 76.230469 43.328125 C 75.703125 43.644531 75.109375 43.785156 74.550781 43.785156 Z M 74.550781 43.75 " fill-opacity="1" fill-rule="nonzero"/><path fill="#ffcf00" d="M 64.75 34.789062 C 64.15625 34.789062 63.558594 34.648438 63 34.335938 C 61.320312 33.355469 60.761719 31.21875 61.703125 29.539062 L 65.203125 23.484375 C 66.183594 21.804688 68.320312 21.246094 70 22.191406 C 71.679688 23.171875 72.238281 25.304688 71.296875 26.984375 L 67.796875 33.039062 C 67.128906 34.160156 65.976562 34.789062 64.75 34.789062 Z M 64.75 34.789062 " fill-opacity="1" fill-rule="nonzero"/><path fill="#ffc000" d="M 52.5 38.5 C 46.828125 38.5 41.964844 41.894531 39.761719 46.761719 C 41.511719 45.953125 43.433594 45.5 45.5 45.5 C 53.234375 45.5 59.5 51.765625 59.5 59.5 C 59.5 61.566406 59.046875 63.488281 58.238281 65.238281 C 63.105469 63.035156 66.5 58.171875 66.5 52.5 C 66.5 44.765625 60.234375 38.5 52.5 38.5 Z M 52.5 38.5 " fill-opacity="1" fill-rule="nonzero"/><path fill="#7fcdee" d="M 157.5 56 C 155.574219 56 154 54.425781 154 52.5 L 154 17.5 C 154 15.574219 155.574219 14 157.5 14 C 159.425781 14 161 15.574219 161 17.5 L 161 52.5 C 161 54.425781 159.425781 56 157.5 56 Z M 157.5 56 " fill-opacity="1" fill-rule="nonzero"/><path fill="#7fcdee" d="M 157.5 35 C 156.589844 35 155.714844 34.648438 155.015625 33.984375 C 153.648438 32.621094 153.648438 30.414062 155.015625 29.050781 L 165.515625 18.550781 C 166.878906 17.183594 169.085938 17.183594 170.449219 18.550781 C 171.816406 19.914062 171.816406 22.121094 170.449219 23.484375 L 159.949219 33.984375 C 159.25 34.683594 158.375 35 157.464844 35 Z M 157.5 35 " fill-opacity="1" fill-rule="nonzero"/><path fill="#7fcdee" d="M 157.5 35 C 156.589844 35 155.714844 34.648438 155.015625 33.984375 L 144.515625 23.484375 C 143.148438 22.121094 143.148438 19.914062 144.515625 18.550781 C 145.878906 17.183594 148.085938 17.183594 149.449219 18.550781 L 159.949219 29.050781 C 161.316406 30.414062 161.316406 32.621094 159.949219 33.984375 C 159.25 34.683594 158.375 35 157.464844 35 Z M 157.5 35 " fill-opacity="1" fill-rule="nonzero"/><path fill="#7fcdee" d="M 157.5 56 C 157.148438 56 156.800781 55.964844 156.484375 55.859375 L 121.484375 45.046875 C 119.628906 44.484375 118.613281 42.523438 119.175781 40.671875 C 119.734375 38.816406 121.695312 37.800781 123.550781 38.359375 L 158.550781 49.175781 C 160.40625 49.734375 161.421875 51.695312 160.859375 53.550781 C 160.40625 55.054688 159.003906 56.035156 157.5 56.035156 Z M 157.5 56 " fill-opacity="1" fill-rule="nonzero"/><path fill="#7fcdee" d="M 136.5 49.523438 C 135.238281 49.523438 134.050781 48.859375 133.421875 47.671875 L 126.316406 34.441406 C 125.40625 32.726562 126.035156 30.625 127.75 29.714844 C 129.464844 28.804688 131.566406 29.433594 132.476562 31.148438 L 139.578125 44.378906 C 140.488281 46.09375 139.859375 48.195312 138.144531 49.105469 C 137.621094 49.386719 137.058594 49.523438 136.5 49.523438 Z M 136.5 49.523438 " fill-opacity="1" fill-rule="nonzero"/><path fill="#7fcdee" d="M 122.605469 56.246094 C 121.308594 56.246094 120.050781 55.511719 119.453125 54.285156 C 118.613281 52.535156 119.351562 50.433594 121.066406 49.59375 L 134.996094 42.839844 C 136.746094 42 138.84375 42.734375 139.683594 44.449219 C 140.523438 46.164062 139.789062 48.300781 138.074219 49.140625 L 124.144531 55.894531 C 123.65625 56.140625 123.128906 56.246094 122.640625 56.246094 Z M 122.605469 56.246094 " fill-opacity="1" fill-rule="nonzero"/><path fill="#7fcdee" d="M 136.921875 84.175781 C 136.21875 84.175781 135.484375 83.964844 134.855469 83.511719 C 133.28125 82.355469 132.964844 80.183594 134.085938 78.609375 L 154.664062 50.433594 C 155.820312 48.859375 157.988281 48.546875 159.566406 49.664062 C 161.140625 50.785156 161.453125 52.988281 160.335938 54.566406 L 139.753906 82.738281 C 139.054688 83.683594 138.003906 84.175781 136.921875 84.175781 Z M 136.921875 84.175781 " fill-opacity="1" fill-rule="nonzero"/><path fill="#7fcdee" d="M 130.480469 75.214844 C 128.800781 75.214844 127.296875 73.988281 127.015625 72.273438 C 126.699219 70.351562 128.03125 68.566406 129.921875 68.285156 L 144.585938 65.976562 C 146.476562 65.695312 148.296875 66.988281 148.574219 68.878906 C 148.890625 70.804688 147.558594 72.589844 145.671875 72.871094 L 131.003906 75.179688 C 130.828125 75.179688 130.65625 75.214844 130.445312 75.214844 Z M 130.480469 75.214844 " fill-opacity="1" fill-rule="nonzero"/><path fill="#7fcdee" d="M 147.488281 87.5 C 145.808594 87.5 144.304688 86.273438 144.023438 84.558594 L 141.714844 69.964844 C 141.398438 68.039062 142.730469 66.253906 144.621094 65.941406 C 146.578125 65.660156 148.328125 66.953125 148.609375 68.84375 L 150.921875 83.441406 C 151.234375 85.363281 149.90625 87.148438 148.015625 87.464844 C 147.839844 87.464844 147.628906 87.5 147.453125 87.5 Z M 147.488281 87.5 " fill-opacity="1" fill-rule="nonzero"/><path fill="#7fcdee" d="M 178.078125 84.175781 C 176.996094 84.175781 175.945312 83.683594 175.246094 82.738281 L 154.664062 54.566406 C 153.511719 52.988281 153.859375 50.820312 155.433594 49.664062 C 157.011719 48.511719 159.179688 48.859375 160.335938 50.433594 L 180.914062 78.609375 C 182.070312 80.183594 181.71875 82.355469 180.144531 83.511719 C 179.515625 83.964844 178.816406 84.175781 178.078125 84.175781 Z M 178.078125 84.175781 " fill-opacity="1" fill-rule="nonzero"/><path fill="#7fcdee" d="M 167.511719 87.5 C 167.335938 87.5 167.160156 87.5 166.949219 87.464844 C 165.058594 87.148438 163.730469 85.363281 164.046875 83.441406 L 166.355469 68.84375 C 166.671875 66.953125 168.421875 65.660156 170.34375 65.941406 C 172.234375 66.253906 173.566406 68.039062 173.25 69.964844 L 170.941406 84.558594 C 170.660156 86.273438 169.191406 87.5 167.476562 87.5 Z M 167.511719 87.5 " fill-opacity="1" fill-rule="nonzero"/><path fill="#7fcdee" d="M 184.519531 75.214844 C 184.34375 75.214844 184.171875 75.214844 183.960938 75.179688 L 169.296875 72.871094 C 167.371094 72.554688 166.074219 70.769531 166.390625 68.878906 C 166.703125 66.988281 168.488281 65.660156 170.378906 65.976562 L 185.046875 68.285156 C 186.96875 68.601562 188.265625 70.386719 187.949219 72.273438 C 187.671875 73.988281 186.199219 75.214844 184.484375 75.214844 Z M 184.519531 75.214844 " fill-opacity="1" fill-rule="nonzero"/><path fill="#7fcdee" d="M 157.5 56 C 155.996094 56 154.628906 55.019531 154.140625 53.515625 C 153.578125 51.660156 154.59375 49.699219 156.449219 49.140625 L 191.449219 38.324219 C 193.304688 37.765625 195.265625 38.78125 195.824219 40.636719 C 196.386719 42.488281 195.371094 44.449219 193.515625 45.011719 L 158.515625 55.824219 C 158.164062 55.929688 157.816406 55.964844 157.5 55.964844 Z M 157.5 56 " fill-opacity="1" fill-rule="nonzero"/><path fill="#7fcdee" d="M 192.394531 56.246094 C 191.871094 56.246094 191.378906 56.140625 190.890625 55.894531 L 176.960938 49.140625 C 175.210938 48.300781 174.511719 46.199219 175.351562 44.449219 C 176.191406 42.699219 178.289062 42 180.039062 42.839844 L 193.96875 49.59375 C 195.71875 50.433594 196.421875 52.535156 195.578125 54.285156 C 194.984375 55.546875 193.726562 56.246094 192.429688 56.246094 Z M 192.394531 56.246094 " fill-opacity="1" fill-rule="nonzero"/><path fill="#7fcdee" d="M 178.5 49.523438 C 177.941406 49.523438 177.378906 49.386719 176.855469 49.105469 C 175.140625 48.195312 174.511719 46.058594 175.421875 44.378906 L 182.523438 31.148438 C 183.433594 29.433594 185.570312 28.804688 187.25 29.714844 C 188.964844 30.625 189.59375 32.761719 188.683594 34.441406 L 181.578125 47.671875 C 180.949219 48.859375 179.726562 49.523438 178.5 49.523438 Z M 178.5 49.523438 " fill-opacity="1" fill-rule="nonzero"/><path fill="#29abe2" d="M 195.578125 54.285156 C 194.949219 55.511719 193.691406 56.246094 192.394531 56.246094 C 191.90625 56.246094 191.378906 56.140625 190.890625 55.894531 L 178.21875 49.769531 L 163.203125 54.390625 L 171.816406 66.183594 L 185.046875 68.25 C 186.96875 68.566406 188.265625 70.351562 187.984375 72.273438 C 187.703125 73.988281 186.199219 75.214844 184.519531 75.214844 C 184.34375 75.214844 184.136719 75.214844 183.960938 75.179688 L 177.660156 74.164062 L 180.914062 78.609375 C 182.035156 80.183594 181.683594 82.355469 180.144531 83.511719 C 179.515625 83.964844 178.78125 84.175781 178.078125 84.175781 C 176.996094 84.175781 175.945312 83.683594 175.246094 82.738281 L 171.988281 78.261719 L 170.976562 84.558594 C 170.695312 86.273438 169.226562 87.5 167.511719 87.5 C 167.335938 87.5 167.160156 87.5 166.984375 87.464844 C 165.058594 87.148438 163.765625 85.363281 164.078125 83.441406 L 166.144531 70.28125 L 161.140625 63.453125 L 154 42 L 154 32.933594 L 144.515625 23.484375 C 143.148438 22.121094 143.148438 19.878906 144.515625 18.515625 C 145.878906 17.148438 148.121094 17.148438 149.484375 18.515625 L 154 23.066406 L 154 17.5 C 154 15.574219 155.574219 14 157.5 14 C 159.425781 14 161 15.574219 161 17.5 L 161 23.066406 L 165.515625 18.515625 C 166.878906 17.148438 169.121094 17.148438 170.484375 18.515625 C 171.851562 19.878906 171.851562 22.121094 170.484375 23.484375 L 161 32.933594 L 161 47.738281 L 176.085938 43.085938 L 182.488281 31.113281 C 183.433594 29.433594 185.535156 28.769531 187.25 29.679688 C 188.929688 30.625 189.59375 32.726562 188.683594 34.441406 L 185.605469 40.144531 L 191.484375 38.324219 C 193.304688 37.765625 195.265625 38.816406 195.859375 40.636719 C 196.421875 42.488281 195.371094 44.449219 193.515625 45.046875 L 188.019531 46.726562 L 193.933594 49.59375 C 195.683594 50.433594 196.421875 52.535156 195.578125 54.285156 Z M 195.578125 54.285156 " fill-opacity="1" fill-rule="nonzero"/><path fill="#99d7f1" d="M 171.5 175 C 171.5 186.585938 162.085938 196 150.5 196 C 138.914062 196 129.5 186.585938 129.5 175 C 129.5 163.414062 147 136.5 150.5 136.5 C 154 136.5 171.5 163.414062 171.5 175 Z M 171.5 175 " fill-opacity="1" fill-rule="nonzero"/><path fill="#7fcdee" d="M 171.5 175 C 171.5 182.59375 167.476562 189.246094 161.421875 192.921875 C 163.378906 189.734375 164.5 186.023438 164.5 182 C 164.5 170.660156 147.734375 144.65625 143.746094 143.535156 C 146.753906 139.335938 149.378906 136.5 150.5 136.5 C 154 136.5 171.5 163.414062 171.5 175 Z M 171.5 175 " fill-opacity="1" fill-rule="nonzero"/><path fill="#99d7f1" d="M 143.5 150.5 C 143.5 156.308594 138.808594 161 133 161 C 127.191406 161 122.5 156.308594 122.5 150.5 C 122.5 144.691406 129.5 129.5 133 129.5 C 136.5 129.5 143.5 144.691406 143.5 150.5 Z M 143.5 150.5 " fill-opacity="1" fill-rule="nonzero"/><path fill="#7fcdee" d="M 143.5 150.5 C 143.5 154.316406 141.503906 157.640625 138.460938 159.460938 C 139.441406 157.886719 140 155.996094 140 154 C 140 148.191406 133 133 129.5 133 C 129.394531 133 129.253906 133.035156 129.113281 133.035156 C 130.550781 130.898438 131.949219 129.5 133 129.5 C 136.5 129.5 143.5 144.691406 143.5 150.5 Z M 143.5 150.5 " fill-opacity="1" fill-rule="nonzero"/><path fill="#99d7f1" d="M 192.5 140 C 192.5 145.808594 187.808594 150.5 182 150.5 C 176.191406 150.5 171.5 145.808594 171.5 140 C 171.5 134.191406 178.5 119 182 119 C 185.5 119 192.5 134.191406 192.5 140 Z M 192.5 140 " fill-opacity="1" fill-rule="nonzero"/><path fill="#7fcdee" d="M 192.5 140 C 192.5 143.816406 190.503906 147.140625 187.460938 148.960938 C 188.441406 147.386719 189 145.496094 189 143.5 C 189 137.691406 182 122.5 178.5 122.5 C 178.394531 122.5 178.253906 122.535156 178.113281 122.535156 C 179.550781 120.398438 180.949219 119 182 119 C 185.5 119 192.5 134.191406 192.5 140 Z M 192.5 140 " fill-opacity="1" fill-rule="nonzero"/><path fill="#99d7f1" d="M 86.695312 140.453125 C 86.695312 138.109375 84.699219 136.183594 82.25 136.183594 C 81.164062 136.183594 80.183594 136.570312 79.414062 137.199219 C 77.175781 134.644531 73.78125 133 70 133 C 66.21875 133 62.859375 134.644531 60.585938 137.199219 C 59.816406 136.570312 58.835938 136.183594 57.75 136.183594 C 55.300781 136.183594 53.304688 138.109375 53.304688 140.453125 C 49 140.453125 45.5 143.78125 45.5 147.910156 C 45.5 152.039062 49 155.363281 53.304688 155.363281 C 54.214844 155.363281 55.089844 155.191406 55.894531 154.945312 C 56.59375 156.449219 58.136719 157.5 59.988281 157.5 C 61.84375 157.5 63.386719 156.449219 64.050781 154.945312 C 65.800781 155.890625 67.828125 156.414062 70 156.414062 C 72.171875 156.414062 74.199219 155.890625 75.949219 154.945312 C 76.648438 156.449219 78.191406 157.5 80.011719 157.5 C 81.828125 157.5 83.40625 156.449219 84.105469 154.945312 C 84.910156 155.226562 85.785156 155.363281 86.695312 155.363281 C 91 155.363281 94.5 152.039062 94.5 147.910156 C 94.5 143.78125 91 140.453125 86.695312 140.453125 Z M 86.695312 140.453125 " fill-opacity="1" fill-rule="nonzero"/><path fill="#7fcdee" d="M 94.5 147.910156 C 94.5 150.535156 93.101562 152.84375 90.964844 154.140625 C 90.546875 150.359375 87.21875 147.453125 83.195312 147.453125 C 83.195312 145.109375 81.199219 143.183594 78.75 143.183594 C 77.664062 143.183594 76.683594 143.570312 75.914062 144.199219 C 73.640625 141.644531 70.28125 140 66.5 140 C 62.71875 140 59.359375 141.644531 57.085938 144.199219 C 56.316406 143.570312 55.335938 143.183594 54.25 143.183594 C 51.800781 143.183594 49.804688 145.109375 49.804688 147.453125 C 48.230469 147.453125 46.796875 147.910156 45.535156 148.644531 C 45.5 148.398438 45.5 148.15625 45.5 147.910156 C 45.5 143.78125 49 140.453125 53.304688 140.453125 C 53.304688 138.109375 55.300781 136.183594 57.75 136.183594 C 58.835938 136.183594 59.816406 136.570312 60.585938 137.199219 C 62.859375 134.644531 66.21875 133 70 133 C 73.78125 133 77.140625 134.644531 79.414062 137.199219 C 80.183594 136.570312 81.164062 136.183594 82.25 136.183594 C 84.699219 136.183594 86.695312 138.109375 86.695312 140.453125 C 91 140.453125 94.5 143.78125 94.5 147.910156 Z M 94.5 147.910156 " fill-opacity="1" fill-rule="nonzero"/><path fill="#99d7f1" d="M 75.25 155.226562 C 75.25 151.515625 72.101562 148.539062 68.25 148.539062 C 66.535156 148.539062 64.996094 149.136719 63.769531 150.113281 C 60.234375 146.089844 54.949219 143.5 49 143.5 C 43.050781 143.5 37.765625 146.089844 34.230469 150.113281 C 33.003906 149.136719 31.464844 148.539062 29.75 148.539062 C 25.898438 148.539062 22.75 151.550781 22.75 155.226562 C 15.996094 155.226562 10.5 160.476562 10.5 166.949219 C 10.5 173.425781 15.996094 178.675781 22.75 178.675781 C 24.183594 178.675781 25.550781 178.429688 26.84375 178.011719 C 27.929688 180.390625 30.378906 182.035156 33.25 182.035156 C 36.121094 182.035156 38.570312 180.390625 39.65625 178.046875 C 42.421875 179.515625 45.605469 180.355469 49 180.355469 C 52.394531 180.355469 55.578125 179.515625 58.34375 178.046875 C 59.429688 180.390625 61.878906 182.035156 64.75 182.035156 C 67.621094 182.035156 70.105469 180.390625 71.15625 178.011719 C 72.449219 178.429688 73.816406 178.675781 75.25 178.675781 C 82.003906 178.675781 87.5 173.425781 87.5 166.949219 C 87.5 160.476562 82.003906 155.226562 75.25 155.226562 Z M 75.25 155.226562 " fill-opacity="1" fill-rule="nonzero"/><path fill="#7fcdee" d="M 83.929688 175.140625 C 83.964844 174.753906 84 174.371094 84 173.949219 C 84 167.476562 78.503906 162.226562 71.75 162.226562 C 71.75 158.515625 68.601562 155.503906 64.75 155.503906 C 63.035156 155.503906 61.496094 156.136719 60.269531 157.113281 C 56.734375 153.089844 51.449219 150.5 45.5 150.5 C 39.550781 150.5 34.265625 153.089844 30.730469 157.113281 C 29.503906 156.136719 27.964844 155.503906 26.25 155.503906 C 22.398438 155.503906 19.25 158.515625 19.25 162.226562 C 15.890625 162.226562 12.808594 163.519531 10.605469 165.65625 C 11.269531 159.773438 16.449219 155.226562 22.75 155.226562 C 22.75 151.515625 25.898438 148.503906 29.75 148.503906 C 31.464844 148.503906 33.003906 149.136719 34.230469 150.113281 C 37.765625 146.089844 43.050781 143.5 49 143.5 C 54.949219 143.5 60.234375 146.089844 63.769531 150.113281 C 64.996094 149.136719 66.535156 148.503906 68.25 148.503906 C 72.101562 148.503906 75.25 151.515625 75.25 155.226562 C 82.003906 155.226562 87.5 160.476562 87.5 166.949219 C 87.5 170.136719 86.171875 173.039062 83.929688 175.140625 Z M 83.929688 175.140625 " fill-opacity="1" fill-rule="nonzero"/></svg>